<?xml version="1.0"?><svg id="Sketch_codloured" xmlns="http://www.w3.org/2000/svg" viewBox="0 0 1101.23 747.33"><path d="M396.85,347.87l38.64-6,10.89-7.78,8.1,5.82s9.75,21.78,9.75,23.31v23.75l-57.76,10.15-12.13-28.22-5.09-21.27,7.6.24Z" fill="#71816d"></path><polygon points="346.71 206.75 332.63 211.05 323.29 202.89 326.35 189.95 334.61 181.75 329.13 172.91 308.61 160.24 314.61 145.35 340.53 126.81 355.86 121.87 362.86 126.81 370.46 148.4 347.98 162.37 335.4 170.33 332.19 172.16 331.77 173.87 336.36 181.41 363.61 168.16 383.44 154 390.94 145.1 398.11 144.76 394.02 167.41 346.71 206.75" fill="#71816d"></polygon><polygon points="676.89 183.62 701.9 183.62 707.73 186.1 731.71 184.45 736.98 189.99 734.9 206.37 723.23 206.37 687.17 209.25 673.06 203.03 667.38 197.11 672.73 182.28 676.89 183.62" fill="#fff"></polygon><path d="M370.46,148.4l10.39,11.84s-46.25,25.21-46.25,24.51-5.47-11.84-5.47-11.84l41.33-24.51Z" fill="#fff"></path><path d="M1099.46,263.9v45.36c-12.07-12.35-40.73-41.79-40.73-41.79l13.13-29.61,6.44,4.93,21.16,21.11Z" fill="#ffe4d9"></path><path d="M1036.5,275.28l62.96,49.49v30.05c-30.5-19.16-101.73-63.53-101.73-63.53l14.26-27.03,24.51,11.02Z" fill="#ffe4d9"></path><polygon points="54.11 329.07 46.23 334.99 2.13 365.79 2.13 323.37 34.85 300.62 44.37 308.87 54.11 329.07" fill="#ffe4d9"></polygon><path d="M930.26,72.75c-5.38,7.56-17.13,9.97-24.81,4.56-1.3-.99-2.29-1.68-2.48-3.02-.22-4.38,9.48-14.12,16.92-16.72,1.27-.43,3.2-.55,4.19.13,1,.54.46,2.41.68,3.76.44,2.02,3,2.39,4.38,3.67,2.38,1.59,2.82,5.04,1.31,7.33l-.19.3Z" fill="#282726"></path><path d="M829.76,39.22c-3.28,6.23-25.38,4.88-28.73-1.09-1.23-3.76,2.12-7.61,5.15-9.56,9.05-6.25,23.64-1.37,23.64,10.39l-.06.26Z" fill="#282726"></path><path d="M179.61,279.34c-2.97,5.34-10.86,8.72-16.25,6.71-2.35-.82-2.85-3.11-2.04-5.46.25-1.49,2.28-3.71.5-4.68-2.43-1.13-8.31-1.42-8.5-5.14-.05-2,1.53-4.1,3.45-4.52,4.08-.15,7.55,2.05,11.79,2.67,5.13.82,13.5,3.33,11.19,10.11l-.14.31Z" fill="#282726"></path><path d="M915.81,287.46c-3.47-.54-8.29-.67-11.77-1.64-7.2-2.78-.49-10.29,4.03-12.2,1.75-.75,3.11-2.41,5.07-2.46,1.13-.01,2.17.53,3.16,1.08,3.95,2.46,8.1,4.34,11.29,6.88,2.44,2.03,1.88,4.93-.73,6.52-2.91,1.98-7.49,2.17-10.74,1.85l-.31-.03Z" fill="#282726"></path><path d="M1022.49,124.58c-1.27,2.61-4.56,4.78-7.34,4.9-1.83.08-3.61-.53-5.8-.95-5.03-.93-14.5-2.5-7.63-8.69,2.87-2.19,7.07-5.19,9.96-7.32,1.37-.87,3.01-2.41,4.68-2.17,1.31.42,2.01,2.98,3.37,3.24,1.62.33,4.26-.71,5.1,1.04,1.01,1.51-.55,3.03-1.7,4.09-1.57,1.36-.21,4.13-.56,5.58l-.08.28Z" fill="#282726"></path><path d="M126.24,278.52c-4.12.53-8.54.97-12.62,2.14-2.76.62-9.28,3.36-8.92-1.67.56-3.25,4.51-5.45,5.16-8.65.89-3.61-6.08-8.92.75-10.05,6.78-.28,10.35,7.09,15.17,10.75,1.09,1.14,2.65,2.14,2.94,3.75.24,1.52-.94,3.29-2.18,3.64l-.3.1Z" fill="#282726"></path><path d="M154.99,370.27c-6.71,4.69-16.12,3.05-19.16-5.1-1-2.37-2.55-5.59-1.19-7.94.53-.75,1.55-1.08,2.47-1.28,4.28-.69,8.63-2.01,12.82-2.23,3.61,0,2.84,4.09,1.64,6.31-1.25,2.53.94,3.25,2.98,4.51,2.53,1.2,2.4,3.82.7,5.51l-.25.22Z" fill="#282726"></path><path d="M952.7,203.41c-5.08-.78-10.84-3.75-15.72-5.36-.76-.33-1.52-.77-2.03-1.39-3.65-5.49,7.65-13.73,12.19-15.23.49-.07.94.08,1.33.42,1.59,1.79,2.75,4.29,4.14,6.35,3.41,4.12,4.18,11.05.33,15.12l-.25.09Z" fill="#282726"></path><path d="M542.65,255.44c-1.91,1.69-4.48.8-6.36-.58-2.55-2.04-7.08-2.97-7.76-6.33-.09-1.36.48-2.82,1.34-3.88,2.38-2.7,6.02-6.35,8.44-8.95,1.41-1.95,5.53-4.67,6.94-1.48.3,1.03.07,2.43.53,3.38.59,1.42,2.71,1.87,3.1,3.28.61,2.65-.76,4.74-2.07,7.25-1.41,2.48-2.45,5.05-3.95,7.11l-.21.21Z" fill="#282726"></path><path d="M241.85,18.07c-5.88.84-3.72-4.96-6.72-7.89-1.33-1.38-3.47-1.89-4.39-3.62C228.26,1.99,241.84.04,246.52,0c6.02-.04,7.47,8.74,6.55,13.36-1,2.06-3.7,1.96-5.94,3.03-1.91.63-3.43,1.27-4.96,1.63l-.32.05Z" fill="#282726"></path><path d="M106.8,215.33c-5.78,1.14-19.05.97-18.46-7.55,1.19-4.72,9.44-8.99,19.31-7.7,1.24.16,2.92.48,3.64,1.33,1.4,1.64.07,4.9-.83,6.99-1.01,2-2.05,5.7-3.42,6.81l-.23.14Z" fill="#282726"></path><path d="M271.57,107.02c-2.9.67-7.7,1.01-10.01,1.36-2.92.31-5.49-.04-8.21-2.23-1.95-1.53-3.41-4.05-2.73-6.5,1.42-5.63,11.52-10.83,16.86-7.59,2.44,1.72,1.19,6.02,2.74,8.22,1.1,1.32,4.5,1.54,3.71,3.81-.4,1.2-1.31,2.45-2.1,2.81l-.26.11Z" fill="#282726"></path><path d="M482.53,277.72c1.08,1.67,3.22,4.3,1.11,5.69-1.63,1.47-14.07,6.44-16.67,2.16-1.47-2.4-3.22-5.76-4.48-8.09-.88-1.65-1.61-2.59-1.47-4.76.18-4.25,3.31-2.84,6.09-2.14,3.25.64,7.47.01,10.71,1.07,1.86,1.39,3.08,4.03,4.52,5.81l.18.26Z" fill="#282726"></path><path d="M147.33,142.16c-4.13,5.54-14.45,8.76-19.71,3.51-2.03-3.58-.34-10.72,3.28-13.1,3.15-.99,6.42,1.36,9.75,1.23,5.8.35,9.9,1.84,6.86,8.07l-.18.28Z" fill="#282726"></path><path d="M812,209.73c-12.7-2.54-16.04-4.42-4.14-13.4,2.37-1.55,2.98-4.3,5.75-5.44,1.8-.66,3.61-.72,5.22-.34,3.06,1.58,4.7,6.99,3.26,10.2-.97,2.12-3.32,3.62-5.48,5.56-2.06,1.6-3.25,3.02-4.41,3.41h-.2Z" fill="#282726"></path><path d="M354.25,88.5c-6.23-1.21-20.07-.65-10.37-10.09,2.31-2.29,5.76-5.75,7.38-7.36.96-.95,2.05-1.63,3.49-1.88,3.27-.54,3.41,3.75,5.35,5.31,3.93,3.25,1.33,7.35-1.76,10.17-1.26,1.19-2.63,3.23-3.88,3.81l-.2.03Z" fill="#282726"></path><path d="M812.71,107.85c-1.8.15-6.03.16-8.34.24-1.71-.03-3.41.35-4.83-.68-3.28-2.7-.47-10.23,2.48-13.26,3.47-2.99,9.37-4.35,13.67-2.88.96,1.46-.13,4.14-.11,6.03-.14,1.49-.34,2.48-.29,3.45-.02,1.45,1.29,3.99.18,5.39-.61.76-1.55,1.43-2.48,1.67l-.26.05Z" fill="#282726"></path><path d="M252.25,189.28c-4.24,3.93-7.55,8.37-14,8.81-3.1.9-4.21-1.88-4.68-4.45-.74-3.69.4-8.07,3.67-10.16,3.96-2.75,20.5-3.44,15.21,5.54l-.2.26Z" fill="#282726"></path><path d="M69.79,265.92c3.87,3.7-6.81,12.08-10.16,13.21-.69.18-1.29-.01-1.87-.44-1.92-1.5-4.35-3.99-6.01-5.46-1.15-.92-1.84-2.21-1.52-3.74.71-5.92,6.21-9.12,11.86-8.94.9.03,1.58.44,1.96,1.28.62,1.39.63,3.31,2.39,3.46,1.22.24,2.48.28,3.13.53l.23.1Z" fill="#282726"></path><path d="M908.88,178.78c-3.64,1.6-16.22-1.1-12.84-7,2.38-3.82,8.65-6.17,12.21-8.87,1.09-.64,2.4-.89,3.61-.45,2.05.68,3.3,2.51,4.34,4.25,2.81,3.38.03,5.64-2.9,8.33-1.81,1.54-3.06,2.74-4.21,3.62l-.21.12Z" fill="#282726"></path><path d="M644.46,61.17c-2.66.23-5.7-1.95-7.06-4.38-.4-.57-.8-1.21-.9-1.9-.08-.96.57-1.77,1.33-2.34,4.82-2.69,10.68-4.81,16.06-6.42,1.28-.33,2.88-.55,3.91.41.82.82,1.33,2.14,1.89,3.38,1.01,2.54,1.89,4.82-.97,6.38-3.63,1.84-10.5,3.7-14.02,4.85l-.25.03Z" fill="#282726"></path><path d="M212.07,411.41c-1.57.3-4.23-.26-4.96-2.16-1.3-3.33.84-6.73,1.26-10.23.92-3.12.29-5.21,3.49-6.51,1.37-.34,2.69.51,3.72,1.36,2.9,2.61,5.92,5.53,8.66,8.23,2.93,2.91-1.27,5.31-3.97,6.12-2.3.89-6.01,2.58-7.94,3.15l-.27.05Z" fill="#282726"></path><path d="M892.98,245.13c-2.77.23-11.09.74-13.69.92-1.01.06-2.17.06-3.09-.5-.33-.23-.51-.56-.56-.97.07-2.68.33-6.17-.1-8.96-.42-2.02,1.48-2.48,3.14-2.46,3.8.05,6.75.13,10.44.22,2.57.49,3.56,3.07,5.56,4.95,2.85,3.22,3.26,6.09-1.4,6.77l-.28.04Z" fill="#282726"></path><path d="M461.42,100.87c-5.33.51-2.55-5.16-1.9-8.07.42-1.85-.26-3.95.78-5.41,2.47-3.25,8.4-4.38,11.84-2.5,1.81,2.21,4.75,6.27,4.48,9.2-.48,2.02-3.19,2.71-4.97,3.37-3.03,1-7.04,2.64-9.89,3.37l-.33.04Z" fill="#282726"></path><path d="M691.64,156.65c-5.46,1.95-5.31-2.71-4.63-6.7.59-2.86.15-5.85,2.06-8.3.65-.71,1.57-1.19,2.56-.94,1.98.54,4.56,1.58,7.06,2.4,3.66,1.5,8.94,2.11,7.86,6.5-.81,1.64-3.36,2.61-5.05,3.27-2.59.97-7.12,2.83-9.57,3.69l-.29.09Z" fill="#282726"></path><path d="M107.68,321.19c-3.97-.35-15.81,1.75-13.18-5.77,1.63-2.91,2.21-8.08,5.5-9.46,4.4-1.29,10.07.02,11.74,4.77.52,2.32-1.37,4.78-2.21,7.06-.65,1.19-.99,2.62-1.7,3.34l-.15.06Z" fill="#282726"></path><path d="M250.86,481.57c-4.99,1.43-5.09-3.68-5.14-7.33-.01-1.49-.19-2.7-.15-4.41.12-1.51.96-2.45,1.84-4.02,1.02-1.43,1.11-2.75,2.5-2.75,1.5.28,5.02,1.31,7.48,1.93,1.63.45,2.84.59,4.29,1.85,2.99,2.88-.29,6.59-2.99,8.41-2.18,1.75-5.67,4.93-7.59,6.22l-.24.1Z" fill="#282726"></path><path d="M178.48,63.38c-4.68,2.72-13.03,8.9-15.31.08-.66-2.26-1.55-4.73-2.06-7.01-.08-.91.5-1.35,1.4-1.65,9.96-3.2,22.9-.39,16.2,8.37l-.24.22Z" fill="#282726"></path><path d="M575.25,413.31c-2.02,1.23-7.46-1.03-10-.72-9.21.8-4.77-5.15-1.7-9.53,2.58-3.2,13.48-4.33,15.38-2.18.89,1.23-.17,3.31-.5,4.71-.79,2.25-1.73,6.05-3,7.57l-.18.16Z" fill="#282726"></path><path d="M397.03,26.33c-1.18.16-4.07-.46-4.19-2.31-.25-2.88,4.51-5.29,5.16-8.37.39-2.3-.12-4.95,2.79-5.61,2.03-.41,3.71.77,5.76,1.3,5.12,1.18,5.98,4.32,4.5,8.97-1.12,2.93-4.02,2.89-6.69,3.89-2.06.6-5.58,1.79-7.07,2.11l-.26.03Z" fill="#282726"></path><path d="M1053.21,242.46c-4.11,1.27-9.02-1.39-11.35-4.86-.83-1.31-1.71-2.9-1.25-4.25,2.31-4.03,8.94-6.83,13.23-4.83,3.04,2.63,1.61,11.06-.39,13.81l-.23.13Z" fill="#282726"></path><path d="M984.67,290.9c-1.43,1-3.5-.18-5.09-.52-2.13-.73-4.77,1.28-6.59.55-1.6-1.71-.3-4.43.25-6.5,1.48-4.17,4.73-8.86,9.05-9.15,2.92.17,3.71,3.25,3.55,5.78-.11,3.12,1.03,7.04-.95,9.64l-.23.19Z" fill="#282726"></path><path d="M554.01,530.19c-2.51-.39-6.4-1-9.12-1.44-.65-.1-1.2-.28-1.49-.7-1.76-5.2,3.54-12.06,9.09-11.7,2.19.26,3.04,2.62,3.88,4.37,1,2.42,3.94,4.83,3.33,7.6-.57,2.08-3.9,2.13-5.41,1.9l-.27-.04Z" fill="#282726"></path><path d="M1058.32,210.6c-.6.91-1.88,2.76-2.59,3.81-.48.72-.91,1.29-1.51,1.33-.81.08-1.8-.66-2.61-1.28-2.53-2.12-4.11-5.14-4.62-8.43-.72-4.42.51-9.67,4.47-7.95,1.66.72,2.74,1.97,4.05,3.22,3.33,2.95,5.16,4.69,2.92,9.1l-.11.19Z" fill="#282726"></path><path d="M1006.86,239.36c-.06.44-1.66,1.62-2.88,2.77-2.34,1.96-4.08,4.72-7.23,4.07-4.6-2.54-4.08-14.75,1-16.75.86-.19,1.81.43,2.65,1.05,2.75,2.12,5.09,5.64,6.47,8.67v.19Z" fill="#282726"></path><path d="M938.12,253.47c-3.96.4-8.61-4.84-6.06-8.45,1.17-2.14,3.72-3.71,6.53-3.48,3.86.13,8.64,3.99,7.36,8.09-1.6,1.76-5.65,2.77-7.59,3.79l-.24.05Z" fill="#282726"></path><path d="M1044.78,185.13c-3.63.76-9.83-.82-11.08-4.9-.27-4.4,6.03-8.09,9.9-7.16,3.39,2.04,5.53,9.68,1.43,11.97l-.25.09Z" fill="#282726"></path><path d="M991.71,182.55c-2.25,1.43-6.43,3.32-9.22,2.35-2.52-2.58-3.1-7.19-.68-10.01,4.31-5.54,10.6,2.83,10.04,7.45l-.14.2Z" fill="#282726"></path><path d="M615.82,148.75c.49,5.23-2.82,8.53-8.03,6.26-1.79-.7-2.14-2.37-1.18-3.88,1.31-2.25,1.99-5.44,3.83-7.12,3.68-2.01,5.19,1.4,5.36,4.47v.27Z" fill="#282726"></path><path d="M867.16,162.15c.12,1.71-2.26,4.57-4.17,4.57-1.92.11-5.18-.11-5.59-2.4-.62-5.55,8.11-8.77,9.72-2.44l.03.26Z" fill="#282726"></path><path d="M1099.46,321.41v7.51c-4.41-3.54-16.61-13.39-17.56-14.15-9.74-7.4-28.04-21.18-39.01-29.48-8.87-6.77-17.36-12.87-27.59-17.52-3.14-.57-4.8,3.57-6.11,5.66-1.33,2.7-4.11,8.01-5.7,11.19-.88,1.65-2.05,4.05-2.64,5.22-.12.3-.06.35.15.49,8.49,5.41,50.1,32.15,56.3,35.92,11.54,7.65,35.52,21.35,42.16,26.38v6.97c-8.76-5.42-49.12-30.86-51.91-32.58-10.49-6.7-37.63-24.11-41.67-26.69-3.57-2.35-8.65-4.82-10.52-8.88-1.65-4.47,3.43-8.13,4.79-12.11,1.41-2.95,4.88-10.15,5.93-12.35,1.48-3.48,5.25-5.87,9.1-5.2,9.44,2.96,17.92,9.19,25.93,14.89,4.2,3.41,42.94,32.5,58.35,44.73Z" fill="#282726"></path><path d="M56.03,310.08c-1.5.82-2.98,1.29-3.1,2.01.04,1.63,2.86,4.63,3.08,6.7.31,1.45-1.8,2.39-1.87,3.8,1.8,5.95.92,8.61-4.11,12.37-14.4,12.38-35.81,27.27-47.9,37.74v-8.29c.16-.1.33-.22.5-.34,6.28-4.26,30.28-22.75,35.44-26.75,3.19-2.74,10.09-7.89,11.21-9.31-.46-2.25-2.1-5-2.95-7.2-2.71-6-5.84-11.49-10.66-16.43-.45-.43-.78-.6-1.11-.48-2.14,1.33-15.93,10.92-17.54,11.99-3.36,2.16-11.19,7.36-14.89,9.72v-6.48c1.63-.67,2.49-1.23,4.25-2.6,6.08-4.41,12.72-9.65,19.06-13.91,4.83-3.23,11.86-7.45,15.9-.82.39.52.73.9,1.14.92,1.27.1,2.85-3.25,4.6-2.06,1.86,1.27,4.54,1.95,6.8,2.02,2.07.2,3.86.44,4.67,2.27.93,2.06-.41,4.15-2.52,5.13Z" fill="#282726"></path><path d="M1099.46,259.75v8.14c-7.38-7.18-24.79-25.28-26.33-25.93-.54,1.11-4.19,9.6-5.64,12.79-.77,1.65-5.12,10.34-5.57,11.53.01,1.01,1.21,1.38,2.71,2.94,1.91,1.73,3.66,3.27,5.18,4.68,7.68,7.52,22.02,21.7,29.65,29.82v8.53c-9.9-10.18-20.11-21.99-32-32.67-4.21-3.68-7.55-6.74-11.04-11.11-.68-.89-1.12-1.03-.95-1.78.71-1.63,5.4-11.48,6.15-13.1,1.45-3.26,3.04-7.01,4.52-10.39,1.69-3.41,1.33-4.84,4.39-6.65,6.96-2.48,12.71,7.75,17.3,11.64,3.4,3.47,8.08,7.88,11.63,11.56Z" fill="#282726"></path><path d="M19.47,322.42c-4.41,5.28-11.16,9.15-17.34,12.34v-3.18c1.01-.34,2.06-.69,2.95-1.14,4.83-2.37,8.25-8.47,14.39-8.02Z" fill="#282726"></path><path d="M1099.46,295.5v3.61c-1.36-1.18-2.28-3.2-1.12-4.75l1.12,1.14Z" fill="#282726"></path><path d="M1095.58,331.65c2.28,4.2-1.37,2.85-3.51.98-6.32-4.66-26.64-19.78-29.76-22.03-.19-.12-.81-.22-1.38-.59-.78-.5-.87-1.6-.03-1.94.92-.31,2.23-.34,2.37-.3,8.13,5.94,24.39,17.77,32.22,23.72l.08.15Z" fill="#282726"></path><path d="M1050.57,306.05c-6.34-4.43-16.34-11.61-22.43-15.96-.13-.04-.13-1.05.15-1.81.17-.61.92-.34,1.58-.12.74.22.77.27,1.6.87,4.33,3.06,17.81,12.63,20.03,14.19.49.35,1.38.8,1.91,1.26.61.52.19,1.88-.64,1.88-.62,0-1.42-.19-2.06-.28l-.13-.03Z" fill="#282726"></path><path d="M1097.79,347.21c-5.32-3.45-16.69-11.38-22.15-15.09-.06-.06-.33-.51-.66-1.05-.68-.68-.13-2.34.73-2.07.43.21,1.19.75,1.7,1.06,4.31,2.91,17.98,12.27,20.33,13.88.48.46,1.48,1.11,1.19,1.73-.14.45-.79,1.2-1.02,1.45l-.12.11Z" fill="#282726"></path><path d="M1025.48,296.56c2.65,1.78,8,5.39,10.79,7.26.2.17.32.09.15.34-.31.45-1.14,1.71-1.6,2.35-.06.07-10.4-6.99-11.02-7.38.21-.56,1.62-2.42,1.66-2.55l.03-.03Z" fill="#282726"></path><path d="M1016.38,292.97c-3.27-.43-6.85-2.95-8.83-5.52,3.76-1.35,7.9,1.64,8.88,5.39l-.05.13Z" fill="#282726"></path><rect x="1055.29" y="315.35" width="3.09" height="6.87" transform="translate(231.85 1052.22) rotate(-58.42)" fill="#282726"></rect><path d="M1012.81,277.05c1.66-1.08,3.71,1.77,1.92,2.83-1.76,1.44-4.08-1.59-2.08-2.74l.16-.09Z" fill="#282726"></path><path d="M11.45,351.8c-1.91,1.43-4.33,4.84-6.41,5.22-1.92.14-2.22-1.18-.8-2.3,3.01-2.54,7.58-5.88,10.38-8.05,1.8-1.15,26.39-17.02,28.19-18.16.44-.01.7.72,1.22,1.29.32.43.41.61.3.7-9.06,5.9-23.58,15.23-32.73,21.2l-.15.11Z" fill="#282726"></path><path d="M35.4,324.55c-3.4,2.02-9.89,5.86-13.61,8.07-.5.25-.79.58-.8.38.03-1.5,1.38-3.17,2.62-4.31,1.7-2.29,17.2-10.81,11.86-4.2l-.08.06Z" fill="#282726"></path><path d="M31.11,316.71l-6.2,4.05c-1.72-3.68,2.09-5.45,4.67-6.05l1.95-.45c.53-.12.03,2.15-.42,2.44Z" fill="#282726"></path><path d="M1098.72,278.09c.17.34.21,2.27-.29,2.3-.36.09-1.72-.39-1.97-.44-2.34-2.05-4.59-4.47-7.23-6.97-2.57-2.67-5.17-4.71-7.05-7.04.11-.21,1.07-1.53,1.23-1.69,4.15,3.29,11.45,10.35,15.27,13.7l.05.13Z" fill="#282726"></path><path d="M1091.63,287.56c-4.47,1.12-8.58-3.56-8.28-7.86,2.23,1.72,6.18,5.88,8.38,7.83l-.1.03Z" fill="#282726"></path><path d="M1075.3,270.5c-3.22,1.73-7.72-2.25-6.76-6.48,2.39,1.64,4.18,3.33,6.76,6.48Z" fill="#282726"></path><circle cx="1075.78" cy="257.45" r="1.58" fill="#282726"></circle><path d="M208.84,739.77c-7.8.06-27.49,1.17-31.28.71-3.38-1.21-2.73-4.02.25-5.4,2.14-.46,4.71-.2,7.47-.4,38.2-1.08,108.97-5.8,143.27-6.6.72.14,3.88,1.76,3.23,3.46-.58,1.37-2.27,2.28-3.63,2.44-2.89.18-23.47,1.41-29.94,1.78-2.23.07-47.56,1.29-61.75,1.72-7.05.58-24.87,2.07-27.54,2.29h-.07Z" fill="#282726"></path><path d="M210.69,680.89c-2.12.14-16.84,1.13-20.1,1.35-3.66.13-6.03-2.47-2.54-5.23,6.01-1.26,17.65-1.3,23.67-1.99,4.45-.33,20.41-1.37,26.09-1.75,10.24-.17,34.15-.39,37.55-.39,8.96.12,36.11.44,40.24.52.33.07.68.28,1,.57.8.67,1.5,1.67.73,2.74-.87,1.15-1.37,2.2-2.08,2.47-1.81,0-17.21-.25-28.84-.42-20.19-.38-51.8.13-75.64,2.11h-.09Z" fill="#282726"></path><path d="M870.72,735.55c-12.47.27-49.95-1.37-63.45-1.73-11.87-1.06-41.11-3.18-45.19-3.8-.85-.28-2.93-1.45-2.52-2.85.36-1.43,2.09-2.83,3.34-2.78,25.06,2.02,55.06,4.13,73.98,5.13,8.52.07,27.8.24,33.79.29.45-.25,1.41,1,1.96,1.73,1.57,1.64-.15,3.24-1.7,3.94l-.21.07Z" fill="#282726"></path><path d="M663.17,733.92c-10.01.1-48.99.48-50.78.49-1.66-.12-4.81-3.35-2.26-4.9,1.15-.71,2.22-.95,3.25-1,1.65-.01,11.61-.03,20.5-.06,6.73-.02,10.74-.02,16.64-.05,13.21,0,25.93-1.05,39-2.86,8.46-1.01,25.83-3.09,28.87-3.45.35-.05.57.11.82.7,2.18,4.41-1.66,5.44-5.15,5.61-3.86.41-9.16.98-12.29,1.31-1.77.22-32.8,3.56-38.56,4.2h-.05Z" fill="#282726"></path><path d="M587.97,732.64c-33.8-2.5-67.98-2.08-101.32-2.64-1.67-.1-1.87.27-3.12-.64-2.56-2-1.86-3.93,1-4.9,21.28-1.21,79.97,1.47,105.08,2.48.55.25,1,1.07,1.44,1.62,1.9,2.07-.94,3.74-2.72,4.04l-.36.04Z" fill="#282726"></path><path d="M1000.64,733.59c-3.35,1.28-7.74.46-11.33.82-9.47.14-18.72-.19-28.21-.93-13.16-1.54-25.88-1.33-38.62.78-2.08.1-2.62-3.39-.96-4.47,2.55-1.59,7.16-2.83,10.38-2.76,4.01.1,31.1.91,34.34.97,7.6.07,26.18.23,29.56.26,1.32.08,3.19.42,4.3,1.25.8.6,1.3,2.7.72,3.84l-.18.24Z" fill="#282726"></path><path d="M974.17,712.38c-13.93-.47-27.25-.08-40.96,1.54-3.8.26-5.98,1.42-8.05-1.9-.57-1.07.69-2.48,1.75-3.05,1.7-.8,3.7-.53,5.83-.88,7.46-1.17,34.6-1.51,41.32-1.78,4.83.13,16.44.5,19.2.57,1.37.04,3.46.89,4.01,2.17.6,1.42-1.62,3.66-2.97,3.85-5.84-.08-14.38-.39-19.92-.52h-.22Z" fill="#282726"></path><path d="M131.03,713.62c-2.19.09-5.66.25-8.25.34-1.72,0-3.67.26-4.93-1.02-1.21-1.31.57-3.9,2.26-4.53,8.43-1.65,39.2-1.89,49.6-2.72,3.4-.6,5.32,2.92,2.2,5.07-3.79,1.83-7.96.99-12.51,1.51-8.76.43-20.12.96-28.04,1.34h-.33Z" fill="#282726"></path><path d="M649.51,713.4c-12.72.14-37.3-.25-48.34-1-.91-.24-2.59-.79-2.93-1.72-.46-1.35.64-3.53,1.76-3.66,4.39.05,26.83.83,30.87.74,5.47,0,15.97-.13,18.35-.07,3.85,1.03,3.29,4.08.46,5.65l-.17.07Z" fill="#282726"></path><path d="M273.33,713.73c-.72.3-1.53.44-2.38.48-11.05-.17-25.64-.82-36.87-1.4-1.53-.08-3.3-.44-4.43-1.35-2.86-2.37.71-4.68,3.13-4.46,6.3.06,30.48,1.15,37.72,1.4,3.43-.26,7.39,2.67,3.13,5.19l-.3.14Z" fill="#282726"></path><path d="M694.58,713.85c-3.25.37-7.47,1.93-10.87.69-2.61-1.14-1.02-4.79,1.47-5.8,1.21-.57,2.56-.8,3.95-.95,7.13-.65,23.93-2.09,31.41-2.73,1.47-.11,2.98-.2,4.35.08,2.49.43,3.81,2.72,2.26,4.4-2.26,2.15-5.96,2.04-9.21,2.36-7.23.62-16.01,1-22.99,1.89l-.37.06Z" fill="#282726"></path><path d="M543.39,704.48c-.84.19-4.49.92-4.69-.74-.63-3.02-2.32-7.2-.95-10.21.63-.88,1.2-.61,2.12-.88,3.21-.63,10.95-2.15,12.01-2.35.55-.03.79.12,1.45.26,2.59.72,5.81,1.25,7.45,1.97,1.08.68,2.76,1.55,2.16,3.14-.36.99-.99,2.17-2.06,2.42-5.15,1.88-12.16,4.47-17.33,6.35l-.17.05Z" fill="#282726"></path><path d="M123.32,746c-.66.39-1.93,1.8-2.96,1.17-1.17-.59-1.61-1.02-2.99-.74-2.58.17-5.35.92-7.19.55-1.03-.29-2.52-1.15-2.64-2.02-.24-1.07,1.17-3.15,2.21-3.66,2.83-.29,35.94-3.78,38.11-3.98.82.27,1.87,1.18,2.62,2.05.81.86.25,2.03-.56,2.77-.73.64-1.5,1.2-2.43,1.19-6.44.74-18.29,1.8-24.01,2.58l-.16.09Z" fill="#282726"></path><path d="M517,677.66c.73.02,2.87-.11,3.3.4.54.79.55,2.56.5,3.35-.11.62-.85,1.14-1.85,1.55-.61.22-1.65.52-2.24.49-2.21-.15-31.89-2.16-33.41-2.27-.99-.19-3.36-.23-4.08-.79-1.25-1.45-.97-4.4,1.41-4.87,1.16-.37,1.51-.35,2.85-.23,9.13.64,24.92,1.8,33.33,2.37h.2Z" fill="#282726"></path><path d="M775.64,686.16c-6-.33-12.42-.81-19.01-1.21-7.81-.63-12.61-.55-14.84-1.15-1.22-.48-2.91-1.87-2.15-3.14.53-1.18,1.97-2.32,3.08-2.36,1.55.1,31.6,2.14,33.14,2.25,1.13.26,3.42,2.29,2.68,3.68-.56.89-1.78,1.67-2.74,1.9l-.16.03Z" fill="#282726"></path><path d="M925.07,688.21c-1.94-.11-5.23.16-7.17.58-2.55.44-4.09,1.07-6.24.08-1.36-.56-1.19-2.88-.49-3.81,2.6-1.86,7.56-2.5,10.51-2.64,5.17.14,18.69.68,20.54.73,1.05.12,2.79.96,3.43,1.81.73.95-.29,3.54-1.62,4-.47.13-.74.02-1.73,0-5.17-.23-11.95-.54-17.06-.76h-.16Z" fill="#282726"></path><path d="M784.58,708.99c-8.12.67-18.87-.1-26.72.49-.99.08-2.17.27-3.09-.32-2.88-2.31,1.32-6.1,4.1-5.99,7.07-.11,19.4-.07,24.89-.02,3.52.25,4.91,4.45,1.14,5.74l-.31.09Z" fill="#282726"></path><path d="M284.05,698.59c-3.49,2.08-7.94,5.87-11.93,7.26-5.06,1.48-4.46-11.55-.87-16.34.25-.34.35-.17.7-.08,2.47.78,9.83,3.12,11.14,3.55,2.75,1.49,3.5,3.12,1.07,5.51l-.12.1Z" fill="#282726"></path><path d="M500.16,709.6c-5.25.58-11.8.49-17.18.78-3.57-.11-6.24.91-9.11-.88-1.5-.98-1.35-2.64-.15-3.65.59-.55,1.33-.9,2.09-1.04,1.92-.24,6.11-.32,10.59-.5,4.26-.14,8.61-.27,10.93-.36,1.43-.08,2.92.05,4.18.83,2.23,1.16.69,4.2-1.08,4.74l-.27.09Z" fill="#282726"></path><path d="M529.78,711.51c-7.01.33-15.28-.27-22.5-.76-5.5-1-3.89-5.91.74-5.81,4.29.03,11.44.49,17.54.72,3.58.23,5.95-.06,7.2,1.31,1.42,1.88-.61,4.15-2.64,4.46l-.35.07Z" fill="#282726"></path><path d="M869.35,693.93c-.34,3.95-3.9,5.84-7.48,4.23-3.25-1.14-6.29-3.88-6.95-7.32.24-.34,2.03-1.55,3.72-2.86,2.54-1.85,2.82-2.28,4.58-3.27,1.97-1.07,5.07-1.76,6.17.32.47.95.11,1.42.17,2.61-.05,1.76-.14,4.65-.19,6.12l-.02.18Z" fill="#282726"></path><path d="M348.69,710.83c-3.97.2-18.45,1.1-21.7,1.15-.64-.04-2.2-1.95-2.04-2.95.09-.85,1.55-2.1,2.65-2.65.68-.48,19.52-1.01,20.55-1.16,1.08.12,2.68,1.49,2.89,2.43.18.92-1.15,2.66-2.23,3.14l-.12.04Z" fill="#282726"></path><path d="M638.56,703.38c-2.33-.14-6.71-.42-9.26-.57-.65-.02-.83-.06-1.31-.32-.79-.48-1.8-1.69-1.8-2.42.01-.7.8-1.74,1.37-2.58,1.33-1.7,3.06-3.54,4.5-5.23,1.42-1.85,1.29-1.17,3.29-.16,4.31,2.09,11.14,9.24,3.35,11.28h-.14Z" fill="#282726"></path><path d="M896.89,712.24c-1.89.23-8.4,1.01-11.4,1.36-4.02.45-6.95.89-7.93.9-.66,0-2.14-1.62-2.09-2.63-.03-.87,1.25-2.33,2.37-2.99.81-.56,16.86-2.1,17.98-2.34,1.14,0,2.69,1,3.44,1.8,1.26,1.27-.82,3.45-2.2,3.84l-.16.04Z" fill="#282726"></path><path d="M592,689.17c-.25,1.97-4.73,3.58-6.93,4.08-7.56,1.88-8.29-4.57-4.2-9.1,1.92-1.93,6.46-2.88,8.14-1.63.86.76,1.59,1.92,2.06,2.95.28.52.82,3.32.92,3.6v.09Z" fill="#282726"></path><path d="M446.25,729.49c-5.26,1.09-11.8,2.59-16.82,3.08-3-.04-4.18-3.16-1.63-5.03,4.44-1.65,14.18-3.01,17.05-3.55,3.44.31,4.71,3.57,1.62,5.39l-.22.11Z" fill="#282726"></path><path d="M842.96,714.09c-3.79,1.43-13.28.24-14.32-4,.09-.9,1.33-2.66,2.34-2.82,2.03-.44,5.5-1.2,7.44-1.62,1.97-.2,5.05,1.66,5.68,3.65.47,1.39.45,3.94-.95,4.7l-.18.09Z" fill="#282726"></path><path d="M544.29,663.09c-3.71,2.25-12.21,3.73-14.35-.64-.99-6.34,6.71-7.9,11.14-5.28.95.45,2.15,1.08,3.09,1.54.44.22.54.23.74.7.37.86.08,3.19-.44,3.55l-.18.13Z" fill="#282726"></path><path d="M392.11,734.04c-2.32.04-12.07.13-12.92.15-.44-.02-.65-.09-1.2-.34-3.35-1.73-2.52-3.99.28-5.37,1.11-.42,11.16.09,12.99.02,1.19.09,2.45,1.23,3.03,2.08.67,1.08-.98,2.91-2.04,3.43l-.13.04Z" fill="#282726"></path><path d="M572.22,713.11c-2.18.05-12.74.21-13.53.22-.93.06-2.63-1.41-2.91-2.53-.29-.99,1.53-2.85,2.76-3.07,1.15.06,13.07-.66,14-.25.98.46,2.71,1.6,2.44,2.9-.41,1.21-1.39,2.27-2.61,2.7l-.14.03Z" fill="#282726"></path><path d="M603.91,672.1c1.51,4.1-8.39,4.83-10.87,3.59-.78-.92-1.06-3.76-.34-4.42,3.27-1.06,8.68-2.4,11.12.7l.08.13Z" fill="#282726"></path><path d="M805.27,708.19c.58,2.09-2.72,3.84-4.31,4.01-1.89.16-4.67-.41-5.11-2.21-.57-4.4,7.61-5.94,9.34-2.02l.09.22Z" fill="#282726"></path><path d="M385.9,703.9c.89.69.97,3.01.45,3.74-.43.49-1.51.95-2.17,1.2-2.13.79-4.61.04-6.37-1.2-.58-.69-.63-2.83-.09-3.56,1.84-1.37,6.05-.9,8.03-.27l.16.08Z" fill="#282726"></path><path d="M352.76,676.81c.33,1.32-1.15,2.67-2.19,3.31-1.97,1.15-5.73.08-6.39-2.09-.4-4.29,6.86-4.97,8.48-1.43l.09.2Z" fill="#282726"></path><circle cx="366.73" cy="677.51" r="3.07" fill="#282726"></circle><path d="M529.41,478.91c11.17-8.3,14.38-23.58,11.15-37.32-8.37-38.24-23.92-44.81-55.18-65.51-5.95-3.92-12.56-9.11-17.7-13.8-.99-.85-1.23-1.66-1.5-2.87-2.24-10.15-6.06-21.83-15.59-27.47-5.56-3.3-10.67,2.93-14.38,6.87-.4.1-.82-.29-1.48-.95-1.69-1.69-4.8-4.78-6.64-6.61-10.4-11.71-17.08-26.24-21.69-41.2-3.48-11.36-2.53-23.1-2.46-35.05-.22-2.76-.27-4.02,1.83-5.39,4.62-3.38,8.46-7.97,11.8-12.39.77-.83,1.8-1.18,2.95-1.18,7.5.23,15.78.79,22.19-.95,5.57-1.21,12.29-6.51,8.45-12.5-2.47-2.93-5.78-3.33-9.14-5.31-3.26-1.92-6.92-3.21-10.37-4.74-1.74-.77-3.47-1.58-5.14-2.5-1.34-.73-3.09-1.62-3.42-3.28-.35-1.71,1.03-3.14,1.98-4.39l3.15-4.14c2.39-3.16,4.79-6.31,7.19-9.47,1.09-1.43,2.18-2.87,3.28-4.31,2-2.73,3.21-4,4.94-6.75,6.55-9.51,8.49-31.51-8.34-25.4-8.42,5.69-15.73,18.83-28.03,18.37-2.56-.08-5.92.16-8.32-.27-.99-.21-.94-.93-.53-2.13,4.1-11.35,7.54-25.52-3.17-27.07-3.03-.41-6.19.97-7.86,3.5-1.36,1.76-4.43,5.96-5.89,7.83-.92,1.32-2.29,1.9-3.84.51-5.29-4.96-9.31-17.03-12.2-24.2-1.42-3.87-3.63-8.17-7.3-9.17-13.12-2.89-37.39,15.6-48.08,27.99-4.82,6.63-5.51,15.86,3.95,18.26,5.75,2.26,12.74,8.06,16.3,13.59,1.74,2.86-2.04,4.7-3.83,6.41-6.22,4.85-8.79,13.22-5,19.97,3.07,5.78,9.51,7.66,15.93,7.18.79-.03,2.04-.31,2.36.32.04,6.34-.97,16.59-.82,22.62.3,7.23,4.36,13.68,9.65,18.25.97.87,1.35,1.36,1.5,2.43.81,4.39,2.16,13.32,3.28,18.47,3.7,15.82,9.08,31.16,16.44,45.71,3.17,6.57,9.3,19.26,12.47,25.83,5.1,9.78,8.74,20.46,7.04,31.6-.25,1.34-1,1.4-2.14.38-12.97-11.75-25.78-21.44-41.57-27.75-5.77-2.3-11.45-4.94-16.85-7.98-20.2-11.23-36.92-27.79-48.77-47.98-3.92-5.68-9.7-13.98-13.8-19.9-3.77-6.03-8.7-11.16-15.17-14.4-2.45-1.33-6.32-3.13-8.21-1.46-4.78,2.78-5.04,17.21-.52,28.35,1.71,4.5,6.63,14.77,8.91,20.24.3.64.44,1.01.14,1.17-4.52.4-8.76-.09-9.4,5.69-1.16,11.78,11.23,32.51,19.93,39.98,1.21.88.73,1.95-.29,2.86-10.13,10.06,13.15,29.18,21.29,35.32,1.03.69,1.45,1.84.49,2.78-.97,1.09-1.78,2.43-1.91,3.89-.18,1.37.22,2.85.85,4.12,3.87,7.81,11.39,12.02,18.7,15.94.64.64.67,1.57.61,2.45-.74,6.51,6.47,9.6,14.14,12.91,1.3.6,2.38,1.48,3.19,2.63,1.86,2.88,4.46,5.49,7.58,7.05,2.26.72,6.43.96,10.42,1.64,1.66.36,2.92.06,4.07,1.01.99.98,1.95,2.59,3.13,3.29,5.36,2.37,11.8,1.11,17.47.88.45.06.18.34.04.56-2.08,2.35-10.72,12.04-12.5,14.02-.36.38-.54.45-1.03.04-1.38-1.26-3.15-3-4.66-4.46-2.59-2.33-3.9-4.19-6.76-5.67-1.5-.9-3.71-.32-5.26-1.29-.4-.25-.75-.61-1.07-1.02-1.98-3.33-5.13-4.83-8.59-5.86-1.95-.95-3.39-3.06-5.81-2.57-4.76.82-6.76,5.9-8.21,10.19-.35.91-.9,1.58-1.81,1.98-2.1.63-4.99,1.94-5.22,4.25-.4,2.37-1.01,7.58-1.48,10.36-.15.96-1.26.69-2.71.48-2.33-.49-4.3,1.35-4.54,3.51-.15,1.8-.45,7.4-.61,9.81-.65,3.94-3.78,7.08-2.49,11.38,4.49,17.1,17,32.43,26.51,46.47.59.78.72,1.22.39,2.17-2.16,5.12-2.81,10.76-2.17,16.28.53,4.74,1.61,11.25,2.14,15.67.1,1.06.4,1.5-.14,2.31-.92,1.23-5.52,7.18-6.98,8.99-.63.65-.75.13-.98-.85-.08-.35-.17-.76-.27-1.2-1.97-9.13-12.62-30.76-17.17-23.61-1.26,2.09-2.34,5.36-4.42,6.97-3.01,2.39-5.64,3.65-9.35,4.92-8.82,2.89-15.49.21-18.07.59-2.46.55-.54,5.51-.87,7.37-.02,8.22-6.74,14.38-14.72,15.17-4.99,1.29-5.25,8.29-1.96,11.63,1.94,2.4,3.06,2.48,5.46,3.5,3.99,1.61,11.57,4.67,15.57,6.28,5.49,2.36,21.31,4.27,32.31,6.61,1.59.41,2.83.33,4.57,1.01,7.51,1.46,16.61,9.91,21.57,2.85l.16-.28c4.42-8.82-4.94-21.41,1.53-29.14,2.75-3.21,7.02-6.69,11.32-6.7,3.23.63,15.07,3.91,19.88,4.82,6.14,1.09,13.04-2.73,18.97-1.03,15.65,7.12,31.74,12.67,48.08,11.66,1.59-.11,2.5.76,2.78,2.3.62,3.9,2.89,7.26,4.83,10.39-.04,2.44-3.18,7.89-4.51,11.93-.89,2.29-1.35,3.17-2.39,5.24-5.46,9.97-16.34,16.43-17.59,25.48-.47,9.52-.96,24.88-1.09,31.14.09,33.85,10.98,10.66,29.6,12.26,4.95.08,9.98,1.23,14.93,3.12,1.17.46,2.44.39,3.41-.38,2.06-2.08,3.74-6.46,6.96-8.21,6.23-4.18,14.8-3.36,16.7-8.27,1.32-3.37-1.98-6.4-5.07-7.28-12.95-4.04-24.49-10.94-32.88-21.54-3.2-3.45-4.4-10.06-1.32-13.64,2.09-3.16,9.78-14.8,13.12-19.84,1.67-2.21,1.42-2.39,1.73-5.05.52-3.26,4.25-3,6.54-4.37,8.62-5.82,16.44-12.91,23.03-21.05,1.44-2.22,1.63-5.32,4.46-6.4,24.78-13.37,37.05-37.33,41.48-64.91,2.35-11.59,4.91-22.89,4.79-34.45-.03-4.59-.58-9.26-1.56-13.94-.2-1.25.15-2.35,1.18-3.2ZM329.82,206.14l-.13-.04c-6.59-2.52-4.74-12.49.49-15.65.21,3.87-.35,11.63-.36,15.69ZM461.3,364.58c.25,1.14-2.32,2.18-3.98,2.37l2.87-7.46,1.11,5.09ZM450.62,340.04c.13-.25.99-.09,1.59.11.65.2.46.45.23,1.14-.74,2.18-1.48,4.38-2.53,7.47-1.12,3.52-3.21,9.06-3.89,11.73.03.13.14.28.33.44.42.29,1.19,1.14,1.65.79,1.01-2.38,5.04-12.82,6.52-16.51.47-1.09.93,1.08,1.06,1.57.29,1.31.22,2.81-.2,3.92-.9,2.37-3.08,8.03-4.19,10.96-.33.93-.66,1.42-.49,1.8.18.41,1.14,1.02,1.59,1.22l.16.03c.91-.9,4.17-9.63,5.24-11.72.11-.2.2-.29.3-.25,1.77,2.61-.47,5.06-1.68,8.97-1.22,2.72-1.46,4.97-2.37,5.25-.83-.09-5.8-.57-6.55-1.09-.4-.36-.33-1-.56-1.47-.65-1.59-3.43.42-4.15.46-.36-1.04,4.12-12.59,6.15-19.48.92-2.73,1.53-4.81,1.79-5.34ZM445.87,337.36c2.83-.6,2.99-.72,2.13,2.21l-.05.16c-2,5.88-5.99,17.61-8.14,23.91-.21.4-.05.75-.41.43-.41-.35-1.86-1.59-1.96-1.7.34-1.78,5.5-16.35,6.95-20.88.58-1.49.93-3.25,1.48-4.13ZM439.93,344.62c-.68,4.12-2.38,8.57-4.14,12.42h-.08c-.85-4.41.85-9.55,4.22-12.42ZM441.58,163.76c1.32-.74,1.18.43.96,1.24-3.12,11.56-11.38,21.34-18.9,30.33-2.71,3.25-6.43,6.37-6.39,10.95,0,.25.02.5.04.75s.05.49.1.74c.04.24.09.49.16.73.06.24.14.48.22.72.06.16.12.33.19.49.07.18.15.36.24.54.08.17.17.34.26.5.15.27.32.54.5.79,1.13,1.61,2.73,2.3,4.41,3.23,3.12,1.72,6.24,3.55,9.51,4.97,2.17,1.14,4.42,2.11,6.66,3.12,1.17.52,2.34,1.05,3.5,1.59.51.24,1.01.48,1.52.72.43.22,1.06.36,1.42.65.08.06.15.14.21.22.14.2.2.44.19.67-.01.08-.02.16-.04.24-.33,1.14-2.22,1.75-3.2,2.15-1.25.52-2.55.91-3.87,1.2-2.73.6-5.54.77-8.32.73-4.71-.07-9.51-.55-14.18-1.17-9.96-1.31-20.92-1.68-28.87-8.59-.22-.21-.41-.43-.54-.65-.1-.17-.17-.33-.2-.5,0-.04-.02-.08,0-.12-.01-.04-.01-.09-.01-.13-.03-.62.64-1.25,1.11-1.67,8.94-7.64,18.17-14.11,25.34-22.49,5.2-6.33,12.55-15.79,17.6-22.12,2.91-3.85,6.1-7.39,10.39-9.83ZM425.67,168.77c2.66-2.4,7.1-6.37,8.79-7.88,1.06-.95.83-.76.26-.04-5.42,6.73-19.87,24.66-21.55,26.75-7.41,8.97-15.72,17.42-26.42,23.59-.54-.01-.37-.96-.34-1.37,1.7-10.18-.38-19.69-4.23-29.92l.1-.16c.3-.17.72-.16,1.06-.14,3.16.37,6.24.15,9.13-1.2,11.69-4.7,22.91,1.54,33.2-9.63ZM393.95,146.39l.06.02c.17,6.66-1.98,13.63-5.63,19.11.75-6.49,2.36-13.32,5.57-19.13ZM382.08,161.09c.25-.94.62-.95,1.18-1.75,1.24-1.51,3.24-3.93,4.4-5.34-.39,2.2-1.61,7.1-2.08,9.33l-.03.07c-.44.59-2.37,1.46-3.02,1.29-.51-.5-.55-2.83-.45-3.6ZM379.05,162.57c.59,3.4-2.47,5.75-5.91,4.71l5.91-4.71ZM362.76,140.67c.14-1.19.04-1.83.22-1.36,1.22,2.22,3.6,6.58,4.7,8.58v.02c-1.26.8-4.37,2.79-5.71,3.64-.22.25.71-9.2.79-10.88ZM355.87,151.81c.12-1.41,1.97-22.81,2.15-24.89-.01-.18.04-.15.3.25.66,1.04,1.28,2.28,1.62,3.33.89,2.96.52,3.3.3,6.81-.45,5.42-1.24,16.11-1.31,16.21l-.1.11c-.51.45-2.36,2.22-2.6,1.19-.19-.74-.42-2.22-.36-3.01ZM346.16,128.68c.7-1.34,2.85-3.49,2.92-1.98.03,1.59.02,6.25.03,8.19-.12,1.05.48,1.19,1.32,1.08,1.04-.19.83-.8,1.01-2.06.09-.91.2-2.07.31-3.21.43-1.81-.27-4.82,1.57-5.29.75-.2,1.99-.68,1.82.38-.27,3.9-1.64,22.35-1.78,25.1.03,1.5.55,4.38.32,5.43-.34,1.12-2.34,2.6-3.51,2.15-.18-.14-.27-.4-.3-.73.15-3.49.62-6.83.51-10.19-.12-.68.16-4.22-.92-3.32-3.67,5.35-1.62,11.38-2.43,16.85l-.11.22c-.55.69-1.93,1.09-2.75,1.53-1.61.75-2.09,1.03-1.99.64.03-.35.11-1.14.23-2.25.77-7.46,3.01-29.09,3.22-31.01.02-.34.31-1.11.53-1.53ZM342.91,129.4c-.1,5.22-2.7,25.24-3.37,32.96l-.02.19c-.16,1.44-.43,3.34-1.89,4.14-.61.31-1.65.91-2.05.66.24-2.15,3.52-30.42,3.69-31.92.12-2.65.53-5.71,3.64-6.03ZM320.88,162.46c-.02.1-.05.12-.17.09-1.92-.85-5.84-2.5-7.67-3.41l-.12-.11c-1.42-1.83.26-7.11,2.39-7.78.2.36.1,3.53.18,5.28-.11,1.63.34,1.93,2.11,1.72.51-.16.39-.52.48-1.29.2-2.36.41-5.8.69-8.29.26-2.44,2.05-5.14,4.52-5.47-.09,1.34-2.25,17.91-2.41,19.26ZM325.89,165.6c-.12.6.01,1.09-.24.9-.65-.45-2.16-2.94-2.09-4.15v-.14c.33-2.5,1.42-10.59,1.88-14.01.69-3.48.1-6.61,2.69-9.09,1.41-1.18.97-.76.81,1.07-.66,5.48-2.23,18.62-3.05,25.42ZM328.65,168.05c-.27-1.66,2.9-25.74,2.97-27.57.18-3.33,1.31-6.98,5.19-6.84-.45,4.51-3.2,26.14-4.09,33.57l-.04.18c-.79,3.79-2.39,3.81-4.03.66ZM335.64,198.68c-.26,3.16-.47,5.6-.68,8.08-.08.41.09.58-.28.65-.44.16-1.9-.98-2-1.37l-.05-.12c.11-4.18.44-12.27.59-16.86.12-1.1,2.56-2.3,3.3-2.54.3,1.68-.63,7.51-.88,12.16ZM336.95,178.96c-.69-.75-2.98-4.54-3.78-5.69-.21-.41-.39-.45-.24-.65,1.88-1.14,33.77-20.74,35.67-21.84,1.06.89,2.06,2.79,3.15,3.9.93,1.24,2.46,2.47,3.36,3.72-.01.06-.03.19-.04.25-1.74,1.22-11.22,7.46-14.86,9.89l-.17.11c-6.32,4.13-13.46,6.99-20.43,9.72-1.11.38-2.17,1.05-2.66.59ZM364.99,172.74l5.41-4.39c.49,2.77-1.93,5.25-5.41,4.39ZM362.85,174.74l-1.07,2.22c-2.19-.41-3.35-.64-2.16-.48l1.67-2.27c.22-.3,1.73.2,1.56.53ZM356.73,179.26l-3.69,2.49-1.21-1.79,3.7-2.48,1.2,1.78ZM350.35,182.35l-4.75,4.79.41-5.19c.08-.97,3.73-1.14,4.34.4ZM341.51,204.42l-.11.2c-.32.44-1.68,1.29-2.67,1.77-1.3.64-.9.38-.89-.37.15-1.82.55-6.53.92-10.87.26-2.97.47-5.44.67-7.88-.07-1.6,1.23-3.9,2.74-3.83,1.08,6.19.7,14.41-.66,20.98ZM366.46,298.63c-4.39-16.81-10.67-29.4-10.59-44.6-.05-1.25-.58-2.29-1.66-3-2.74-1.65-5.21-3.9-6.89-6.7-1.52-2.46-2.42-5.4-2.61-8.32-.57-12.1,1.27-23.85,2.89-35.78.67-8.42,4.69-12.34,11.85-16.24,4.66-2.88,12.76-7.87,16.81-10.37,3.71-2.48,9.38-5.66,13.26-1.77.53.8-.15,1.43-.96,1.65-3.26,1-6.42-2.1-9.42-.53-6.93,5.2,2.02,16.29,1.81,23.32,1.94,10.7-5.99,23.83,4.28,30.39,7.39,4.34,14.98,6.89,23.94,7.64.89.06,2.48.2,2.11,1.31-3.91,6.6-10.42,11.69-18.03,13.23-1.38.35-3.26,1.02-3.89,2.28-.76,1.63,1.27,3.33,2.69,3.45,1.05.13,2.7-.16,4.21-.28,1.16-.12,1.79-.15,1.95.39.24,1.38-.15,7.58-.12,9.15v.3c-1.06,29.92,11.93,57.98,32.66,78.56,2.77,1.99,1.36,3.74.4,6.85-.67,1.88-.88,3-1.53,3.5-1.57,1.02-4.68,2.31-6.44,3.01-1.05.29-2.02.02-3.06-.29-8.68-2.59-18.63-6.03-25.38-2.25-.31.17-.61.35-.86.51-.86.42-1.14,1-1.44.47-2.09-4.76-20.14-42.49-25.98-55.88ZM401.33,368.32c-.27.46,0,.64-.57.56-.23-.08-1.46.04-1.18-.32.29-.98,1.68-5.51,2.23-7.3.41-1.32.39-1.29.51-2.49.08-.58-.05-1.01.24-1.12.53-.24,2.61.55,2.54.87v.07c-.83,2.16-2.93,7.58-3.77,9.73ZM408.17,357.99h.04c.11.09,1.82.67,2.25.97-.24.58-4.59,11.25-6.04,14.79-.31.7-.41,1.14-.5,1.12-.6-.23-1.65-.67-2.08-.84-.34-.12-.1-.13-.02-.48,1.69-4.15,4.73-11.59,6.35-15.56ZM397.86,362.43l-.1-4.13c-.02-.77,2.2-.92,2.6-.69l-2.5,4.82ZM406.47,388.48l-.02.11c-4.29.97-9.57-.75-12.11-4.42.08-.62,1.1-7.56,1.43-9.83,2.88,5.12,6.36,10.12,10.7,14.14ZM405.88,380.03c-.21-.76-.33-2.12-.1-2.71.48-1.17,5.82-13.99,7.17-17.23.2-.38.21-.7.37-.68.17.06,1.38.84,1.38,1.1-1.43,2.48-5.27,13.86-7.22,18.86l-.11.14c-.33.36-1.43,1.13-1.49.52ZM415.27,366.01c.81-2.27,1.45-4.04,1.68-4.71.04-.35.6-.32,1.14-.18.58.16.45.46.17,1.21-.37,1.04-.98,2.8-1.63,4.65-.8,2.31-1.6,4.61-2.3,6.62-.32.76-.54,2.22.26,2.64.76.12,1.9-.76,2.22-1.5.6-1.51,3.12-8.51,4.23-11.32.24-.55,1.07.43,1.23,1.52.19,1.11-.73,2.6-1.2,3.25l-.12.18c-1.07,2.03-4.32,11.57-5.84,14.53-.19-.11-.68-1.46-.81-2.41-.08-.57-.14-.92-.59-.9-.54.07-1.4.45-1.83.89-.52.46-.74,1.79-1.15,2.51-.48.77-1.29.14-1.4-.15.2-1.01,3.78-10.67,5.94-16.83ZM312.87,626.97c-7.04-3.09-13.97-5.29-21.31-6.66l-.21-.05c-3.24-.6-22.63-4.12-25.88-4.75-5.13-1.99-12.57-4.94-17.62-7.01-1.46-.69-5.8-4.19-1.56-4.88,9.48-2.31,15.63-10.37,17.29-19.81.15-.49.36-.9.68-1.17.32-.29.74-.44,1.24-.51,7.65-.25,14.94-1.72,21.21-5.99,2.08-1.37,4.04-3.21,5.84-5.07.47-.41.92-.6,1.35-.47,4.7,4.64,6.09,12.09,8.11,18.18,2.58,7.83,4.15,16.43,7.75,23.82,2.61,5,5.34,6.31,6.38,8.7.87,2.06,0,7.26-3.27,5.67ZM332.53,585.59c-6.92,6.71-16.78,8.16-19.31,20.41l-.06.17c-.64-.9-2.82-7.29-3.67-9.24-.16-.36-.2-.56-.01-.81,6.24-4.01,12.17-20.8,21.21-14.31,1,.94,2.85,2.36,1.84,3.78ZM430.52,647.73c-.12.14-.27.2-.43.16l-.13-.06c-.47-.4-.67-1.3-1.04-1.83-1.26-1.82-4.39,2.79-3.46,3.78.73.47,2.98-1.4,3.26-.87.23.33-.12.81-.28,1.23-2.42,3.88-2.12,11.34.59,15.56,5.97,9.57,17.23,18.97,27.38,22.94,2.65,1.29,8.78,3.23,10.06,4.41-7.28,2.47-14.3,5.36-18.83,11.4-.76.69-1.66.75-2.65.5-8.7-2.54-17.26-3.01-25.8-.37-2.82.83-5.71,2.17-8.47,3.6-.59.25-1.08.29-1.42.04-1.99-4.36-1.25-10.2-1.37-14.91.15-3.62.37-19.81.72-26.56,1.05-8.35,12.72-14.87,17.88-25.94,1.78-3.79,5.68-13.6,6.62-15.49.16-.26.47-.2.72-.23,1.53.16,8.25,1,9.76,1.2.37.06.5.12.49.25-.63,1.16-12.18,18.96-13.6,21.19ZM523.17,509.17c-1.77,9.59-3.96,20.64-5.91,30.17-5.11,24.1-20.88,47.01-45.14,54.77-1.19.47-2.43,1.11-3.07,2.22-.99,1.71.57,2.84,2.44,3.35,1.26.36,1.86.5,1.26,1.1-1.7,1.7-7.22,7.09-10.23,10.05-5.83,6.86-16.74,11.06-24.51,9.72-3.84-.67-6.83-1.83-8.38-6.15-.45-1.71-1.58-4.25.12-5.54,3.17-1.31,6.79-1.99,10.52-3.63,3.96-1.76,21.56-8.94,17.8-14.02-3.18-2.94-9.07,4.81-20.95,9.16-4.98,1.9-9.11,2.34-14.38,3.1-7.52,1.18-15.73,1.28-22.94-1.45-5.78-1.94-16.87-5.82-20.71-7.08-.68-.22-.96-.36-.58-.68,7.41-4.39,22.93-12.65,19.11-17.08-1.27-1.02-3.84-.53-5.12.78-10.04,9.04-22.17,14.34-35.52,15.65-2.25.22-3.15.3-5.64-.48-3.61-.94-10.15-2.63-12.69-3.28-1.54-.26-.59-1.64-.35-2.59,1.27-3.39-.61-5.86-3.01-8.27-3.68-3.98-8.64-4.86-13.95-3.35-.37-.04-.49-.3-.52-.82-.04-.85-.12-2.24-.22-3.91-.27-6.65-.96-13.48-.91-17.42.43-5.25,5.02-11.84,6.4-16.77.28-1.04.46-1.97.26-2.73-.23-1.1-2.04-1.79-3.15-1.37l-.23.12c-.73.45-1.49,1.95-2.56,3.5-1.14,1.71-1.55,2.5-1.9,1.99-7.94-11.85-17.53-24.11-22.39-37.35-.42-.97-.19-2.02.81-2.43,1.98-.63,2.84-1.75,2.33-3.88-.5-2.39-1.73-6.64-1.85-9.45-.02-1.63-.5-4.12.76-2.46,1.74,2.41,4.98,6.94,6.46,8.91,3.01,2.96,6.37.17,4.42-3.43-.89-1.68-3.5-4.48-4.34-6.62-.16-1.67.34-5.69.45-8.88.08-1.08.12-1.9.17-2.17.03-.19.08-.1.17.27.9,3.05.7,7.04,2.49,9.28,1.9,2.52,4.26.91,4.61-1.66.1-5.92-1.15-11.94.07-17.89.57-2.8,1.31-6.24,2.97-8.43.11-.05.22,0,.32.14.78,1.57,3.69,9.23,4.97,12.37,1.35,4.94,7.84,3.91,5.46-1.47-.36-1.12-3.04-7.06-.36-5.58.62.71,1.69,2.66,2.91,4.54,2.49,3.47,2.74,6.33,6.56,6.85,1.43-.11,2.16-3.52,3.15-3.14.57.14,1.55,1.21,2.76,2.26,1.81,1.87,3.9,2.47,2.47,4.57-6.99,9.49-11.6,19.43-13.74,30.93-.53,3.16-1.86,7.21-1.96,10.17.16,1.38,1.48,3.61,3.21,3.15,1.69-.31,2.36-2.64,2.66-4.3,4.67-21.67,8.26-30.67,23.96-47.89,3.9-4.26,8.75-9.37,13.58-14.55,1.61-1.77,2.32-2.11,2.63-4.48.07-.71-.1-1.53-.65-1.89-3.31-1.69-12.82,2.51-22.35,2.7-1.35.04-2.74-.01-3.69-.99-1.72-1.61-2.76-4.6-5.13-4.72-5.44-.28-12.41.01-16.53-3.72.82-.59,6.07-.25,7.12-.8,1.48-.57,2.91-2.68,1.67-3.97-.94-1.15-2.76-1.59-4.26-1.54-7.66.55-14.4-1.2-20.63-5.2-.78-.53-1.62-1.34-1.93-2.17-1.21-4.43,10.18.8,12.37-.26,1.71-.38,3.44-2.09,2.51-3.99-.41-1.08-1-1.54-2.05-1.72-1.7-.3-5.78-.95-8.19-1.35-9.91-1.31-19.43-5.43-24.46-14.55-.3-.69-.3-1.32.1-1.76,3.5-2.21,8.37.64,11.28.27,2.99.02,3.31-3.97.59-5.22-17.3-5.65-32.86-23.11-35.49-30.51-3.7-8.95,12.17,3.07,14.77,4.15,1.64.97,5.18-.3,4.91-2.49-.38-1.72-2.58-2.98-5.51-4.71-3.43-1.94-7.18-4.48-10.11-7.47-9.21-9.45-16.79-21.05-20.53-33.88-.33-1.33-.87-3.27,0-4.34.93-.92,2.68-.27,3.69.58,6.92,6.28,13,12.97,18.76,20.19,1.12,1.28,2.71,2.43,4.42,2.36,1.56-.06,3.41-1.24,2.97-2.59-.94-1.7-3.17-3.74-4.4-5.31-4.06-5.03-7.56-10.57-11.08-15.99-8.94-14.74-18.8-30.16-17.27-48.28.09-.93.35-1.59.89-1.74.42-.16,1.05.14,1.47.3,6.47,3.26,11.76,8.41,15.53,14.46,7.08,10.42,15.54,23.89,23.41,34.28,14.19,18.51,33.4,32.7,54.84,41.32,19.69,7.86,35.89,22.47,52.06,35.56,2.72,2.52,6.28,4.23,10.14,3.99,3.13-.23,6.48-.64,8.47-3.41.92-1.29,2.2-2.22,3.65-2.82,6.5-2.69,7.2-10.79,10.22-16.22.59-.41,1.4.04,1.98.28,2.65,1.27,4.86,2,6.74.09,1.22-1.07,2.04-3.39,3.23-3.58.37-.09.77-.03,1.21.13,7.49,3.57,17.73,5.67,25.2,1.23,1.19-.79,2.59-1.2,3.76-.25,8.4,7.37,18.62,15.99,21.87,27.05.84,3.03,1.62,6.24,2.3,9.28.07.62.01,1.17-.24,1.65-7.23,6.02-16.46,9.97-25.59,13.45-15.48,5.03-54.01,17.22-59.98,19.15-6.67,2.01-16.71,7.57-16.06,12.68.35,2.3,3.28,4.66,5.67,4.66,2.29-.06,11.5-.5,15.62-.62,1.01.1-.62,1.44-1.69,2.96-1.41,1.88-2.47,2.8-3.12,4.32-.66,2.41,1.76,4.98,3.65,6.01.9.5,1.49.63,2.41.72,2.91.28,14.19,1.35,18.32,1.74,1,.09,1.47.11,1.93.58,1.38,1.64,3.3,4.55,5.56,4.88,4.67.46,11.18.95,15.94,1.36,1.12.04,1.64.53,2.35,1.31,2.08,2.56,5.34,4.92,8.88,4.96,7.4.56,14.86.68,22.06-.59,2.14-.35,4.1-.09,6.16.53,8.47,2.62,16.87,1.08,25.72-1.94,1.56-.62,2.95-.52,3.26,1.35,1.39,7.62,1.48,15.76.23,23.62ZM518.19,478.4c-.85.17-.56-.39.48-1.62,1.31-1.71,3.6-4.19,4.56-5.87,1.85-3.9-1.51-5.57-4.5-3.12-2.05,1.9-7.55,7.87-10.65,10.61-2.29,1.8-6.1,2.54-9.08,2.63-1.5.06-1.23-.3.58-1.53,2.26-1.76,5.16-3.42,7.23-5.38.9-1.32-.21-4.08-1.86-4.06-3.29-.23-9.55,5.93-15.65,8.73-7.56,3.08-16.67,2.47-24.46.97.03-.46,1.43-.54,2.02-.8,10.28-2.71,24.78-7.93,19.45-11.95-2.66-1.35-7.51,2.62-16.64,5.05-3.52.96-7.21,1.56-10.57,1.74h-.22c-2.96-.01-18.03-.95-19.18-.98,3.39-1.41,11.97-4.06,16.28-5.62,1.71-.66,2.28-.55,3.34-1.44.92-.82,2.04-3.01.89-3.99-1.24-1.25-3.59-1.14-5.2-.39-13.12,5.68-27.02,7.59-40.56,4.18-1.01-.32-1.28-.83-.6-1.61,3.38-3.06,6.93-5.89,10.95-7.13,5.57-1.44,12.87-2.23,18.23-3.68,3.69-2.14,2.01-5.57-1.94-5.36-3.65.5-24.5,3.37-27,3.71-4.39.23-14.48.54-17.08.53-.19-.04-.21-.14-.07-.3.24-.28,1.02-.8,1.45-1.08,4.1-2.73,8.51-4.22,12.82-5.6,5.63-1.82,43.45-13.8,58.39-18.66,10.13-3.72,33.26-14.09,35.84-25.05.41-2.09.52-3.85-1.07-4.46-1.83-.35-3.55,1.22-4.38,3.03-.62,1.07-1.27,2.35-1.88,3.27-.27.39-.4.37-.54.02-.65-2.05-3.78-12.72-4.39-14.81-.05-.17-.17-.56.03-.47.85.52,10.78,7.75,15.67,11.24,5.5,3.86,10.72,7.9,14.74,13.34,7.04,10.58,9.81,23.52,12.44,35.78,1.97,11.83-5.4,26.91-17.87,30.13Z" fill="#282726"></path><path d="M442.54,165c-3.12,11.56-11.38,21.34-18.9,30.33-2.71,3.25-6.43,6.37-6.39,10.95.01,1,.18,1.99.52,2.94l-6.43,2.41c-4.97-.13-10.16,2.54-14.17,4.49-1.4.8-3.13,1.32-4.3,2.12-.1.1-.19.25-.25.41l-5.26,1.97c-.15-.25-.23-.5-.22-.75-.03-.62.64-1.25,1.11-1.67,8.94-7.64,18.17-14.11,25.34-22.49,5.2-6.33,12.55-15.79,17.6-22.12,2.91-3.85,6.1-7.39,10.39-9.83,1.32-.74,1.18.43.96,1.24Z" fill="#d89364"></path><path d="M446.38,226.71c-.01.08-.02.16-.04.24-.33,1.14-2.22,1.75-3.2,2.15-1.25.52-2.55.91-3.87,1.2-2.73.6-5.54.77-8.32.73-4.71-.07-9.51-.55-14.18-1.17-9.96-1.31-20.92-1.68-28.87-8.59-.22-.21-.41-.43-.54-.65l5.26-1.97c-.31.72-.3,1.85,0,2.01.43.18,2.78-1.09,2.92-1.07l.09-.03c2.5-1.08,12.35-5.15,16.47-6.93.5-.21.36-.95-.19-.98-.19-.01-.38-.02-.57-.02l6.43-2.41c.28.82.69,1.61,1.19,2.32,1.13,1.61,2.73,2.3,4.41,3.23,3.12,1.72,6.24,3.55,9.51,4.97,2.17,1.14,4.42,2.11,6.66,3.12,1.17.52,2.34,1.05,3.5,1.59.51.24,1.01.48,1.52.72.43.22,1.06.36,1.42.65.08.06.15.14.21.22.14.2.2.44.19.67Z" fill="#ffb883"></path><path d="M434.46,160.89c-1.69,1.51-6.13,5.48-8.79,7.88-10.29,11.17-21.51,4.93-33.2,9.63-2.89,1.35-5.97,1.57-9.13,1.2-.34-.02-.76-.03-1.06.14l-.1.16c3.85,10.23,5.93,19.74,4.23,29.92-.03.41-.2,1.36.34,1.37,10.7-6.17,19.01-14.62,26.42-23.59,1.68-2.09,16.13-20.02,21.55-26.75.57-.72.8-.91-.26.04ZM397.83,188.91l-5.55,1.51c-.91.26-.07-3.43.78-4.12,1.04-.86,2.97-1.7,3.96-1.52,1.19.22,1.99,3.8.81,4.13Z" fill="#ffb883"></path><path d="M430.75,342.71c-20.73-20.58-33.72-48.64-32.67-78.56v-.3c-.02-1.57.37-7.77.13-9.15-.16-.54-.79-.51-1.95-.39-1.51.12-3.16.41-4.21.28-1.42-.12-3.45-1.82-2.69-3.45.63-1.26,2.51-1.93,3.89-2.28,7.61-1.54,14.12-6.63,18.03-13.23.37-1.11-1.22-1.25-2.11-1.31-8.96-.75-16.55-3.3-23.94-7.64-10.27-6.56-2.34-19.69-4.28-30.39.21-7.03-8.74-18.12-1.81-23.32,3-1.57,6.16,1.53,9.42.53.81-.22,1.49-.85.96-1.65-3.88-3.89-9.55-.71-13.26,1.77-4.05,2.5-12.15,7.49-16.81,10.37-7.16,3.9-11.18,7.82-11.85,16.24-1.62,11.93-3.46,23.68-2.89,35.78.19,2.92,1.09,5.86,2.61,8.32,1.68,2.8,4.15,5.05,6.89,6.7,1.08.71,1.61,1.75,1.66,3-.08,15.2,6.2,27.79,10.59,44.6,5.84,13.39,23.89,51.12,25.98,55.88.3.53.58-.05,1.44-.47.25-.16.55-.34.86-.51,6.75-3.78,16.7-.34,25.38,2.25,1.04.31,2.01.58,3.06.29,1.76-.7,4.87-1.99,6.44-3.01.65-.5.86-1.62,1.53-3.5.96-3.11,2.37-4.86-.4-6.85ZM361.92,192.96c.5-2.31,1.1-4.94,3.3-6.12.72-.39,1.57-.72,2.23-.88,1.34-.57,3.84,1.55,4.08,2.7l.06.32c.42,3.39.06,8.17-1.55,11.12-1.3,2.66-3.92,3.72-6.1,1.84-2.26-2.22-2.48-5.9-2.02-8.98ZM379.88,311.63c.01,2.17-1.59.86-2.56.58-.44-.31-.37-.77-.68-1.36-2.35-6.25-10.09-25.38-11.17-28.84.15-.54.18-2.31,1.01-2.69,1.84-1.05,1.62.78,1.8,2.08,1.14,4.24,9.5,24.07,11.6,30.07v.16ZM389.8,340.09h-.06c-1.09-2.53-5.94-13.66-6.06-13.94-.01-.08-.05-.24-.06-.32-.09-.59,0-1.86.09-2.42-.06-.41.83-.99,1.42-.97.39.01.35.35.69,1.03,1.75,4.22,4.48,11.7,5.91,15.36.18.47.3.78.33.87-.32.13-1.73.3-2.26.39Z" fill="#f7ede2"></path><path d="M406.47,388.48l-.02.11c-4.29.97-9.57-.75-12.11-4.42.08-.62,1.1-7.56,1.43-9.83,2.88,5.12,6.36,10.12,10.7,14.14Z" fill="#f7ede2"></path><path d="M536.06,448.27c-2.63-12.26-5.4-25.2-12.44-35.78-4.02-5.44-9.24-9.48-14.74-13.34-4.89-3.49-14.82-10.72-15.67-11.24-.2-.09-.08.3-.03.47.61,2.09,3.74,12.76,4.39,14.81.14.35.27.37.54-.02.61-.92,1.26-2.2,1.88-3.27.83-1.81,2.55-3.38,4.38-3.03,1.59.61,1.48,2.37,1.07,4.46-2.58,10.96-25.71,21.33-35.84,25.05-14.94,4.86-52.76,16.84-58.39,18.66-4.31,1.38-8.72,2.87-12.82,5.6-.43.28-1.21.8-1.45,1.08-.14.16-.12.26.07.3,2.6.01,12.69-.3,17.08-.53,2.5-.34,23.35-3.21,27-3.71,3.95-.21,5.63,3.22,1.94,5.36-5.36,1.45-12.66,2.24-18.23,3.68-4.02,1.24-7.57,4.07-10.95,7.13-.68.78-.41,1.29.6,1.61,13.54,3.41,27.44,1.5,40.56-4.18,1.61-.75,3.96-.86,5.2.39,1.15.98.03,3.17-.89,3.99-1.06.89-1.63.78-3.34,1.44-4.31,1.56-12.89,4.21-16.28,5.62,1.15.03,16.22.97,19.18.98h.22c3.36-.18,7.05-.78,10.57-1.74,9.13-2.43,13.98-6.4,16.64-5.05,5.33,4.02-9.17,9.24-19.45,11.95-.59.26-1.99.34-2.02.8,7.79,1.5,16.9,2.11,24.46-.97,6.1-2.8,12.36-8.96,15.65-8.73,1.65-.02,2.76,2.74,1.86,4.06-2.07,1.96-4.97,3.62-7.23,5.38-1.81,1.23-2.08,1.59-.58,1.53,2.98-.09,6.79-.83,9.08-2.63,3.1-2.74,8.6-8.71,10.65-10.61,2.99-2.45,6.35-.78,4.5,3.12-.96,1.68-3.25,4.16-4.56,5.87-1.04,1.23-1.33,1.79-.48,1.62,12.47-3.22,19.84-18.3,17.87-30.13ZM503.94,418.4c-3.23,3.02-7.39,5.42-11.33,7.35-1.68.59-29.7,11.42-36.14,13.68h-.17c-.67.03-2.75.07-3.15-.83-.29-.84.68-1.27,1.32-1.54,2.97-1.19,35.37-13.62,39.18-15.1,4.16-1.58,8.03-5.21,11.25-8.3,2.35-2.3,3.91.19-.96,4.74ZM508.79,411.16l-2.09-.65c-.47-.14.34-1.75.8-1.76.74,0,1.5,0,1.64.28.22.44.11,2.27-.35,2.13ZM526.61,430.04c-.37.13-1.6.55-2.26.77-.12.04-.35.11-.47.15-.09,0-.96-2.75-1.93-5.51-.93-2.77-1.94-5.48-1.86-5.53.75-.28,2.75-.94,2.87-.99h.04c.91,2.63,2.79,8.11,3.74,10.89.04.14.1.14-.13.22ZM527.6,441.46c1-1.1,2.31,2.71,2.63,4.99.35,2.35-.02,5.21-1.92,6.77l-.12.08c-.27-2.61-1.29-7.33-1.35-10.09.2-.45.68-1.6.76-1.75ZM531.24,457.41c-.23,2.18-.79,7.39-.94,8.82-.07.33.06.42-.22.38-.53-.06-2.59-.26-2.64-.29.14-2.31.83-7.81,1.05-10.21h.04c.43.05,2.31.23,2.64.27.35-.01.09.26.07,1.03Z" fill="#f7ede2"></path><path d="M456.41,688.64c-10.15-3.97-21.41-13.37-27.38-22.94-2.71-4.22-3.01-11.68-.59-15.56.16-.42.51-.9.28-1.23-.28-.53-2.53,1.34-3.26.87-.93-.99,2.2-5.6,3.46-3.78.37.53.57,1.43,1.04,1.83l.13.06c.16.04.31-.02.43-.16,1.42-2.23,12.97-20.03,13.6-21.19.01-.13-.12-.19-.49-.25-1.51-.2-8.23-1.04-9.76-1.2-.25.03-.56-.03-.72.23-.94,1.89-4.84,11.7-6.62,15.49-5.16,11.07-16.83,17.59-17.88,25.94-.35,6.75-.57,22.94-.72,26.56.12,4.71-.62,10.55,1.37,14.91.34.25.83.21,1.42-.04,2.76-1.43,5.65-2.77,8.47-3.6,8.54-2.64,17.1-2.17,25.8.37.99.25,1.89.19,2.65-.5,4.53-6.04,11.55-8.93,18.83-11.4-1.28-1.18-7.41-3.12-10.06-4.41ZM434.88,632.49c1.2-1.87,3.24-5.07,5.29-3.55l.08.18c.2.57-.36,1.56-1.1,2.75-1.53,2.05-2.54,5.39-4.96,6.42-3.56.36-.48-4.07.69-5.8ZM426.57,675.32c-.64.49-2.01,1.02-2.56.53-.45-.49-1.88-3.13-1.06-3.84.6-.4,1.56-.86,2.25-.82l.22.08c.62.55,1.94,3.75,1.15,4.05ZM439.96,695.07c-1.32-1.6-9.83-8.18-5.02-9.01l.25.04c2.26.53,4.74,3.97,6.72,5.69,1.3,1.32,2.64,2.48,3.14,4.08.53,3.41-3.4,1.05-5.09-.8Z" fill="#ffc99c"></path><path d="M316.14,621.3c-1.04-2.39-3.77-3.7-6.38-8.7-3.6-7.39-5.17-15.99-7.75-23.82-2.02-6.09-3.41-13.54-8.11-18.18-.43-.13-.88.06-1.35.47-1.8,1.86-3.76,3.7-5.84,5.07-6.27,4.27-13.56,5.74-21.21,5.99-.5.07-.92.22-1.24.51-.32.27-.53.68-.68,1.17-1.66,9.44-7.81,17.5-17.29,19.81-4.24.69.1,4.19,1.56,4.88,5.05,2.07,12.49,5.02,17.62,7.01,3.25.63,22.64,4.15,25.88,4.75l.21.05c7.34,1.37,14.27,3.57,21.31,6.66,3.27,1.59,4.14-3.61,3.27-5.67ZM272.14,593.69c-.37.08-.36-.22-1.05-.82-1.39-1.48-4.96-4.89-5.5-5.7-.23-.57-.81-1.62-.59-2.25.21-.59,1.16-1.18,1.44-.96,2.09,2.1,5.44,5.89,7.42,7.98l.02.08c.18.25-1.14,1.61-1.74,1.67ZM278.79,599.76c3.77-.36,6.61,1.72,6.73,6.47-2.59-.86-5.43-3.75-6.73-6.47Z" fill="#ffc99c"></path><path d="M332.53,585.59c-6.92,6.71-16.78,8.16-19.31,20.41l-.06.17c-.64-.9-2.82-7.29-3.67-9.24-.16-.36-.2-.56-.01-.81,6.24-4.01,12.17-20.8,21.21-14.31,1,.94,2.85,2.36,1.84,3.78Z" fill="#ffc99c"></path><path d="M522.94,485.55c-.31-1.87-1.7-1.97-3.26-1.35-8.85,3.02-17.25,4.56-25.72,1.94-2.06-.62-4.02-.88-6.16-.53-7.2,1.27-14.66,1.15-22.06.59-3.54-.04-6.8-2.4-8.88-4.96-.71-.78-1.23-1.27-2.35-1.31-4.76-.41-11.27-.9-15.94-1.36-2.26-.33-4.18-3.24-5.56-4.88-.46-.47-.93-.49-1.93-.58-4.13-.39-15.41-1.46-18.32-1.74-.92-.09-1.51-.22-2.41-.72-1.89-1.03-4.31-3.6-3.65-6.01.65-1.52,1.71-2.44,3.12-4.32,1.07-1.52,2.7-2.86,1.69-2.96-4.12.12-13.33.56-15.62.62-2.39,0-5.32-2.36-5.67-4.66-.65-5.11,9.39-10.67,16.06-12.68,5.97-1.93,44.5-14.12,59.98-19.15,9.13-3.48,18.36-7.43,25.59-13.45.25-.48.31-1.03.24-1.65-.68-3.04-1.46-6.25-2.3-9.28-3.25-11.06-13.47-19.68-21.87-27.05-1.17-.95-2.57-.54-3.76.25-7.47,4.44-17.71,2.34-25.2-1.23-.44-.16-.84-.22-1.21-.13-1.19.19-2.01,2.51-3.23,3.58-1.88,1.91-4.09,1.18-6.74-.09-.58-.24-1.39-.69-1.98-.28-3.02,5.43-3.72,13.53-10.22,16.22-1.45.6-2.73,1.53-3.65,2.82-1.99,2.77-5.34,3.18-8.47,3.41-3.86.24-7.42-1.47-10.14-3.99-16.17-13.09-32.37-27.7-52.06-35.56-21.44-8.62-40.65-22.81-54.84-41.32-7.87-10.39-16.33-23.86-23.41-34.28-3.77-6.05-9.06-11.2-15.53-14.46-.42-.16-1.05-.46-1.47-.3-.54.15-.8.81-.89,1.74-1.53,18.12,8.33,33.54,17.27,48.28,3.52,5.42,7.02,10.96,11.08,15.99,1.23,1.57,3.46,3.61,4.4,5.31.44,1.35-1.41,2.53-2.97,2.59-1.71.07-3.3-1.08-4.42-2.36-5.76-7.22-11.84-13.91-18.76-20.19-1.01-.85-2.76-1.5-3.69-.58-.87,1.07-.33,3.01,0,4.34,3.74,12.83,11.32,24.43,20.53,33.88,2.93,2.99,6.68,5.53,10.11,7.47,2.93,1.73,5.13,2.99,5.51,4.71.27,2.19-3.27,3.46-4.91,2.49-2.6-1.08-18.47-13.1-14.77-4.15,2.63,7.4,18.19,24.86,35.49,30.51,2.72,1.25,2.4,5.24-.59,5.22-2.91.37-7.78-2.48-11.28-.27-.4.44-.4,1.07-.1,1.76,5.03,9.12,14.55,13.24,24.46,14.55,2.41.4,6.49,1.05,8.19,1.35,1.05.18,1.64.64,2.05,1.72.93,1.9-.8,3.61-2.51,3.99-2.19,1.06-13.58-4.17-12.37.26.31.83,1.15,1.64,1.93,2.17,6.23,4,12.97,5.75,20.63,5.2,1.5-.05,3.32.39,4.26,1.54,1.24,1.29-.19,3.4-1.67,3.97-1.05.55-6.3.21-7.12.8,4.12,3.73,11.09,3.44,16.53,3.72,2.37.12,3.41,3.11,5.13,4.72.95.98,2.34,1.03,3.69.99,9.53-.19,19.04-4.39,22.35-2.7.55.36.72,1.18.65,1.89-.31,2.37-1.02,2.71-2.63,4.48-4.83,5.18-9.68,10.29-13.58,14.55-15.7,17.22-19.29,26.22-23.96,47.89-.3,1.66-.97,3.99-2.66,4.3-1.73.46-3.05-1.77-3.21-3.15.1-2.96,1.43-7.01,1.96-10.17,2.14-11.5,6.75-21.44,13.74-30.93,1.43-2.1-.66-2.7-2.47-4.57-1.21-1.05-2.19-2.12-2.76-2.26-.99-.38-1.72,3.03-3.15,3.14-3.82-.52-4.07-3.38-6.56-6.85-1.22-1.88-2.29-3.83-2.91-4.54-2.68-1.48,0,4.46.36,5.58,2.38,5.38-4.11,6.41-5.46,1.47-1.28-3.14-4.19-10.8-4.97-12.37-.1-.14-.21-.19-.32-.14-1.66,2.19-2.4,5.63-2.97,8.43-1.22,5.95.03,11.97-.07,17.89-.35,2.57-2.71,4.18-4.61,1.66-1.79-2.24-1.59-6.23-2.49-9.28-.09-.37-.14-.46-.17-.27-.05.27-.09,1.09-.17,2.17-.11,3.19-.61,7.21-.45,8.88.84,2.14,3.45,4.94,4.34,6.62,1.95,3.6-1.41,6.39-4.42,3.43-1.48-1.97-4.72-6.5-6.46-8.91-1.26-1.66-.78.83-.76,2.46.12,2.81,1.35,7.06,1.85,9.45.51,2.13-.35,3.25-2.33,3.88-1,.41-1.23,1.46-.81,2.43,4.86,13.24,14.45,25.5,22.39,37.35.35.51.76-.28,1.9-1.99,1.07-1.55,1.83-3.05,2.56-3.5l.23-.12c1.11-.42,2.92.27,3.15,1.37.2.76.02,1.69-.26,2.73-1.38,4.93-5.97,11.52-6.4,16.77-.05,3.94.64,10.77.91,17.42.1,1.67.18,3.06.22,3.91.03.52.15.78.52.82,5.31-1.51,10.27-.63,13.95,3.35,2.4,2.41,4.28,4.88,3.01,8.27-.24.95-1.19,2.33.35,2.59,2.54.65,9.08,2.34,12.69,3.28,2.49.78,3.39.7,5.64.48,13.35-1.31,25.48-6.61,35.52-15.65,1.28-1.31,3.85-1.8,5.12-.78,3.82,4.43-11.7,12.69-19.11,17.08-.38.32-.1.46.58.68,3.84,1.26,14.93,5.14,20.71,7.08,7.21,2.73,15.42,2.63,22.94,1.45,5.27-.76,9.4-1.2,14.38-3.1,11.88-4.35,17.77-12.1,20.95-9.16,3.76,5.08-13.84,12.26-17.8,14.02-3.73,1.64-7.35,2.32-10.52,3.63-1.7,1.29-.57,3.83-.12,5.54,1.55,4.32,4.54,5.48,8.38,6.15,7.77,1.34,18.68-2.86,24.51-9.72,3.01-2.96,8.53-8.35,10.23-10.05.6-.6,0-.74-1.26-1.1-1.87-.51-3.43-1.64-2.44-3.35.64-1.11,1.88-1.75,3.07-2.22,24.26-7.76,40.03-30.67,45.14-54.77,1.95-9.53,4.14-20.58,5.91-30.17,1.25-7.86,1.16-16-.23-23.62ZM273.28,310.21l-.07.03c-.07-.03-6.93-12.38-7.35-13.12-.45-.63-1.22-2.49-2.2-2.16-.43.23-1.93,1.19-2.61,1.6-.38.24-.58.26-.76-.02-.5-.97-.11-2.8.39-3.66,1.28-1.67,4.88-.99,6.02.38.36.61,5.9,10.27,7.98,13.89.41.73.7,1.17.73,1.31-.28.36-1.65,1.36-2.13,1.75ZM294,334.07c-.23.12-.43-.26-1.01-.82-2.29-2.84-6.23-3.62-5.06-8.33.05-.12.15-.37.2-.49.77.8,5.95,6.2,7.18,7.48l.02.07c.11.25-.84,1.94-1.33,2.09ZM329.6,355.26c-5.05,2.28-10.37-3.94-13.85-6.03-.7-.5-.28-2.06.03-2.55.25-.32,1.27.51,1.67.64,3.51,2.17,9.04,5.83,12.26,7.89l-.11.05ZM328.33,563.6c-1.15-2.13-.85-5.8.86-7.45,1.71-.81,1.26,3.13,2.02,3.95.84,1.9,5.81-3.11,6.79-2.02l.09.14c.14,3.56-7.2,9.4-9.76,5.38ZM361.04,590.44c-1.62,1.58-10.68,1.09-9.94-2.32,1.47-2.18,5.26-3.04,7.83-2.93.41.06,1.15.1,1.35.44.26.64-.71,1.27-1.01,1.79-1.09,1.33,1.98,2.12,1.84,2.87l-.07.15ZM362.3,497.35c-.58,1.05-2.25,1.47-3.18,1.3-2.41-.61-1.01-3.62-.44-5.25,1.94-4.38,4.95-11.66,9.77-11.49.28.16.34.49.18.99-1.14,3.07-6.18,7.5-6.29,10.92l.02.3c.1,1.09.52,2.27-.06,3.23ZM371.84,492.14c-.59.53-1.51,1.33-2.08,1.2-.58-.11-1.33-1.07-1.58-1.7-.38-.76,1.47-2.02,2.22-2.25l.24.04c.68.46,2.09,2.02,1.2,2.71ZM381.16,386.97h-.24c-6.91-5.58-13.02-11.37-20.6-15.29-6.86-3.42-15.5-4.46-20.4-10.96-.36-.46-.5-.69-.37-.67.4.14,1.76.74,3.57,1.51,6.65,2.89,14.86,6.24,21.08,9.06,6.63,3.26,12.02,8.91,17.84,13.85,1.04.82.09,2.12-.88,2.5ZM406.35,596.7c-1.34,1.54-3.68,1.77-5.59,1.13-1.97-.59-3.93-1.79-4.89-2.58-.33-.3.81-1.36,1.46-1.56.47-.15.38,0,.97.15,2.22.75,6.14,2.08,8.13,2.76l-.08.1ZM439.41,593.38l-.24.19c-3.17,2-8.8,2.49-12.59,2.98-3.98-.19-2.7-2.35.73-3.19,1.75-.21,16.38-4.96,12.1.02ZM449.89,585.06c-.85,0-1.54-.7-1.54-1.55s.69-1.54,1.54-1.54,1.55.69,1.55,1.54-.69,1.55-1.55,1.55ZM456.43,561.78l-.2-.04c-2.26-2.2-.9-6.45,1.65-7.72.55.16,1.18,1.42,1.97,1.46.16-.06.68-.57,1.28-1.08,2.05-1.58,3.95-5.19,6.92-3.62-2.66,4.4-7.36,8.03-11.62,11ZM488.75,576.01c-1.13.94-7.9,5.87-9.3,6.94l-.07.03c-.38.2-2.9.29-3.4.01-.4-.18-.87-1.17-.6-1.37.22-.21,1.68-.82,2.28-1.13,1.55-.97,3-2.09,4.75-3.27,2.13-1.43,3.36-2.51,5.39-3.55.37-.19.52-.32.66-.17.39.3.55,2.27.29,2.51ZM513.15,529.13c-2.24,11.43-7.1,22.92-13.52,32.32-.86,1.45-4.95,6.61-3.87,1.95,2.85-8.41,8.71-14.82,11.26-24.18.95-1.86,4.27-18.55,6.39-15.71l.05.16c.33,1.38.01,3.73-.31,5.46ZM514.95,515.21l-.03.09c-.06.23-.94,1.87-1.49,1.19-.42-.44-1.04-1.35-1.19-1.95-.13-1.75.09-3.12.1-5.24.18-2.9.03-5.49.31-6.77.97-.36,1.45-.56,1.68-.29.29.39.71,1.67.88,2.39.05,2.71-.23,8.16-.26,10.58Z" fill="#f7ede2"></path><path d="M535.85,148.2c2.98,1.46.09,4.56-5.45,7.13-9.27,4.06-23.94,10.45-34.3,14.9-6.63,2.56-12.53,6.06-18.49,6.87-7.01.04-.47-6.24,2.76-7.75,13.61-6.52,31.67-13.8,45.44-19.75,2.85-1.28,7.82-2.36,9.87-1.47l.16.06Z" fill="#282726"></path><path d="M516.11,211.03c-12.29-2.8-23.94-3.53-36.5-3.47-1.55-.13-4.42-1.51-4.04-3.1.37-1.51,1.71-2.87,3.36-2.71,12.88-.22,24.67.63,37.16,3.28,1.74.19,3.47,2.16,3.73,3.54.24,1.2-2.14,2.52-3.4,2.47l-.32-.02Z" fill="#282726"></path><path d="M467.83,147.95c-1.98,2.65-5.46,2.45-5.34-1.13-.17-3.42,3.62-10.21,6.03-15.5,2.87-5.9,5.16-11.75,7.84-13.64,1.38-1.19,3.24-.69,3.54,1.21.62,3.12-.84,6.3-2.26,9.52-3.11,6.15-5.94,13.88-9.6,19.27l-.22.26Z" fill="#282726"></path><path d="M381.16,386.97h-.24c-6.91-5.58-13.02-11.37-20.6-15.29-6.86-3.42-15.5-4.46-20.4-10.96-.36-.46-.5-.69-.37-.67.4.14,1.76.74,3.57,1.51,6.65,2.89,14.86,6.24,21.08,9.06,6.63,3.26,12.02,8.91,17.84,13.85,1.04.82.09,2.12-.88,2.5Z" fill="#282726"></path><path d="M513.15,529.13c-2.24,11.43-7.1,22.92-13.52,32.32-.86,1.45-4.95,6.61-3.87,1.95,2.85-8.41,8.71-14.82,11.26-24.18.95-1.86,4.27-18.55,6.39-15.71l.05.16c.33,1.38.01,3.73-.31,5.46Z" fill="#282726"></path><path d="M275.41,308.46c-.28.36-1.65,1.36-2.13,1.75l-.07.03c-.07-.03-6.93-12.38-7.35-13.12-.45-.63-1.22-2.49-2.2-2.16-.43.23-1.93,1.19-2.61,1.6-.38.24-.58.26-.76-.02-.5-.97-.11-2.8.39-3.66,1.28-1.67,4.88-.99,6.02.38.36.61,5.9,10.27,7.98,13.89.41.73.7,1.17.73,1.31Z" fill="#282726"></path><path d="M368.63,482.9c-1.14,3.07-6.18,7.5-6.29,10.92l.02.3c.1,1.09.52,2.27-.06,3.23-.58,1.05-2.25,1.47-3.18,1.3-2.41-.61-1.01-3.62-.44-5.25,1.94-4.38,4.95-11.66,9.77-11.49.28.16.34.49.18.99Z" fill="#282726"></path><path d="M468.05,550.78c-2.66,4.4-7.36,8.03-11.62,11l-.2-.04c-2.26-2.2-.9-6.45,1.65-7.72.55.16,1.18,1.42,1.97,1.46.16-.06.68-.57,1.28-1.08,2.05-1.58,3.95-5.19,6.92-3.62Z" fill="#282726"></path><path d="M338.09,558.22c.14,3.56-7.2,9.4-9.76,5.38-1.15-2.13-.85-5.8.86-7.45,1.71-.81,1.26,3.13,2.02,3.95.84,1.9,5.81-3.11,6.79-2.02l.09.14Z" fill="#282726"></path><path d="M361.11,590.29l-.07.15c-1.62,1.58-10.68,1.09-9.94-2.32,1.47-2.18,5.26-3.04,7.83-2.93.41.06,1.15.1,1.35.44.26.64-.71,1.27-1.01,1.79-1.09,1.33,1.98,2.12,1.84,2.87Z" fill="#282726"></path><path d="M329.71,355.21l-.11.05c-5.05,2.28-10.37-3.94-13.85-6.03-.7-.5-.28-2.06.03-2.55.25-.32,1.27.51,1.67.64,3.51,2.17,9.04,5.83,12.26,7.89Z" fill="#282726"></path><path d="M439.41,593.38l-.24.19c-3.17,2-8.8,2.49-12.59,2.98-3.98-.19-2.7-2.35.73-3.19,1.75-.21,16.38-4.96,12.1.02Z" fill="#282726"></path><path d="M488.75,576.01c-1.13.94-7.9,5.87-9.3,6.94l-.07.03c-.38.2-2.9.29-3.4.01-.4-.18-.87-1.17-.6-1.37.22-.21,1.68-.82,2.28-1.13,1.55-.97,3-2.09,4.75-3.27,2.13-1.43,3.36-2.51,5.39-3.55.37-.19.52-.32.66-.17.39.3.55,2.27.29,2.51Z" fill="#282726"></path><path d="M514.95,515.21l-.03.09c-.06.23-.94,1.87-1.49,1.19-.42-.44-1.04-1.35-1.19-1.95-.13-1.75.09-3.12.1-5.24.18-2.9.03-5.49.31-6.77.97-.36,1.45-.56,1.68-.29.29.39.71,1.67.88,2.39.05,2.71-.23,8.16-.26,10.58Z" fill="#282726"></path><path d="M295.33,331.98c.11.25-.84,1.94-1.33,2.09-.23.12-.43-.26-1.01-.82-2.29-2.84-6.23-3.62-5.06-8.33.05-.12.15-.37.2-.49.77.8,5.95,6.2,7.18,7.48l.02.07Z" fill="#282726"></path><path d="M406.43,596.6l-.08.1c-1.34,1.54-3.68,1.77-5.59,1.13-1.97-.59-3.93-1.79-4.89-2.58-.33-.3.81-1.36,1.46-1.56.47-.15.38,0,.97.15,2.22.75,6.14,2.08,8.13,2.76Z" fill="#282726"></path><path d="M451.44,583.51c0,.85-.69,1.55-1.55,1.55s-1.54-.7-1.54-1.55.69-1.54,1.54-1.54,1.55.69,1.55,1.54Z" fill="#282726"></path><path d="M371.84,492.14c-.59.53-1.51,1.33-2.08,1.2-.58-.11-1.33-1.07-1.58-1.7-.38-.76,1.47-2.02,2.22-2.25l.24.04c.68.46,2.09,2.02,1.2,2.71Z" fill="#282726"></path><path d="M370.04,200.1c-1.3,2.66-3.92,3.72-6.1,1.84-2.26-2.22-2.48-5.9-2.02-8.98.5-2.31,1.1-4.94,3.3-6.12.72-.39,1.57-.72,2.23-.88,1.34-.57,3.84,1.55,4.08,2.7l.06.32c.42,3.39.06,8.17-1.55,11.12Z" fill="#282726"></path><path d="M379.88,311.47v.16c.01,2.17-1.59.86-2.56.58-.44-.31-.37-.77-.68-1.36-2.35-6.25-10.09-25.38-11.17-28.84.15-.54.18-2.31,1.01-2.69,1.84-1.05,1.62.78,1.8,2.08,1.14,4.24,9.5,24.07,11.6,30.07Z" fill="#282726"></path><path d="M392.06,339.7c-.32.13-1.73.3-2.26.39h-.06c-1.09-2.53-5.94-13.66-6.06-13.94-.01-.08-.05-.24-.06-.32-.09-.59,0-1.86.09-2.42-.06-.41.83-.99,1.42-.97.39.01.35.35.69,1.03,1.75,4.22,4.48,11.7,5.91,15.36.18.47.3.78.33.87Z" fill="#282726"></path><path d="M503.94,418.4c-3.23,3.02-7.39,5.42-11.33,7.35-1.68.59-29.7,11.42-36.14,13.68h-.17c-.67.03-2.75.07-3.15-.83-.29-.84.68-1.27,1.32-1.54,2.97-1.19,35.37-13.62,39.18-15.1,4.16-1.58,8.03-5.21,11.25-8.3,2.35-2.3,3.91.19-.96,4.74Z" fill="#282726"></path><path d="M526.61,430.04c-.37.13-1.6.55-2.26.77-.12.04-.35.11-.47.15-.09,0-.96-2.75-1.93-5.51-.93-2.77-1.94-5.48-1.86-5.53.75-.28,2.75-.94,2.87-.99h.04c.91,2.63,2.79,8.11,3.74,10.89.04.14.1.14-.13.22Z" fill="#282726"></path><path d="M528.31,453.22l-.12.08c-.27-2.61-1.29-7.33-1.35-10.09.2-.45.68-1.6.76-1.75,1-1.1,2.31,2.71,2.63,4.99.35,2.35-.02,5.21-1.92,6.77Z" fill="#282726"></path><path d="M531.24,457.41c-.23,2.18-.79,7.39-.94,8.82-.07.33.06.42-.22.38-.53-.06-2.59-.26-2.64-.29.14-2.31.83-7.81,1.05-10.21h.04c.43.05,2.31.23,2.64.27.35-.01.09.26.07,1.03Z" fill="#282726"></path><path d="M508.79,411.16l-2.09-.65c-.47-.14.34-1.75.8-1.76.74,0,1.5,0,1.64.28.22.44.11,2.27-.35,2.13Z" fill="#282726"></path><path d="M272.14,593.69c-.37.08-.36-.22-1.05-.82-1.39-1.48-4.96-4.89-5.5-5.7-.23-.57-.81-1.62-.59-2.25.21-.59,1.16-1.18,1.44-.96,2.09,2.1,5.44,5.89,7.42,7.98l.02.08c.18.25-1.14,1.61-1.74,1.67Z" fill="#282726"></path><path d="M285.52,606.23c-2.59-.86-5.43-3.75-6.73-6.47,3.77-.36,6.61,1.72,6.73,6.47Z" fill="#282726"></path><path d="M439.96,695.07c-1.32-1.6-9.83-8.18-5.02-9.01l.25.04c2.26.53,4.74,3.97,6.72,5.69,1.3,1.32,2.64,2.48,3.14,4.08.53,3.41-3.4,1.05-5.09-.8Z" fill="#282726"></path><path d="M439.15,631.87c-1.53,2.05-2.54,5.39-4.96,6.42-3.56.36-.48-4.07.69-5.8,1.2-1.87,3.24-5.07,5.29-3.55l.08.18c.2.57-.36,1.56-1.1,2.75Z" fill="#282726"></path><path d="M426.57,675.32c-.64.49-2.01,1.02-2.56.53-.45-.49-1.88-3.13-1.06-3.84.6-.4,1.56-.86,2.25-.82l.22.08c.62.55,1.94,3.75,1.15,4.05Z" fill="#282726"></path><path d="M412.1,212.63c-4.12,1.78-13.97,5.85-16.47,6.93l-.09.03c-.14-.02-2.49,1.25-2.92,1.07-.37-.2-.3-1.86.25-2.42,1.17-.8,2.9-1.32,4.3-2.12,4.16-2.03,9.6-4.83,14.74-4.47.55.03.69.77.19.98Z" fill="#282726"></path><path d="M397.83,188.91l-5.55,1.51c-.91.26-.07-3.43.78-4.12,1.04-.86,2.97-1.7,3.96-1.52,1.19.22,1.99,3.8.81,4.13Z" fill="#282726"></path><line x1="411.34" y1="211.63" x2="392.62" y2="218.65" fill="none"></line><path d="M862.79,619.75c-14.03-5.04-29.3-8.25-42.58-12.63-9.93-2.1-18.81-6.75-23.39-16.13-2.18-3.62-5.77-6.49-4.97-11.12.46-4.3-1.48-12.38-1.46-17.3.16-.75,1.35-1.12,2.04-1.6,8.27-4.8,13.61-16.71,17.53-26.3,3.79-11.24,14.55-15.95,16.49-27.72.57-3.13,1.04-7.14,1.57-10.52.24-2.05.74-3.41.16-5.24-.55-1.92-3.41-1.68-3.16-3.92-.08-3.02-.27-10.99-.35-13.29-.03-.67-.15-1.15-.57-1.73-3.98-4.95-4.96,1.36-6.93,2.21-.8-1.79-.1-6.4-1.2-8.33-.8-1.04-1.9-2.31-3-2.64-2.01-.11-6.2,7.89-12.66,12.96-6.8,5.33-17.16,8.01-24.91,4.57-11.71-5.16-28.77-14.4-36.09-24.29-.1-.66,1.11-1.14,1.78-1.34,6.31-1.83,11.39-3.75,14.01-8.92.68-1.23,1.78-2.11,3.16-2.47,9.22-2.49,19.99-6.76,22.73-14.59.41-1.37,1.17-2.53,2.56-3.07,6.56-2.42,12.84-6.21,16.92-12.09,1.8-2.4.66-5.72,2.23-8.19.75-1.39,2.21-2.4,3.7-3.44,4.36-2.74,6.69-8.34,4.38-13.05-.27-.62,1.47-1.59,3.15-2.94,4.25-3.01,4.42-5.63,3.2-10.1-.23-1.98,1.36-2.18,2.77-3.89,2.96-2.87,7.48-7.26,9.87-9.58,1.42-1.42,2.32-2,3.23-4.05.67-1.52.79-3.33.47-5-.31-1.42-.81-2.96.24-4.21,10.32-9.82,19.01-21.17,24.18-34.84.65-1.71,1.04-3.58.69-5.37-1.15-5.67-6.3-6.98-11.49-4.53-.8.28-2.04.76-1.52-.45.12-.26.31-.58.52-.92,7.98-12.8,16.71-25.47,19.44-40.57,2.29-22.31-18.75-.71-28.29,9.28-11.78,11.08-26.27,25.08-34.87,34.21-5.38,4.24-18.94,15.85-21.03,16.91.42-23.93.92-54.34-4.99-78.5-1.52-6.43-4.46-13.74-6.48-20.11-3.36-9.54-8.14-18.62-14.8-26.01-3.26-3.41-9.05-6.22-12.78-9.2-1.14-.75-1.83-1.29-2.77-2.4-3.82-5-7.69-5.88-13.59-5.04-3.48.22-9.86-1.61-13.88-.14-1.85.44-3.64,2.97-5.39,1.38-3.81-5.17-11.16-2.89-16.64-3.41-6.01.37-12.25-1.56-18.33.96-1.29.61-2.52,1.44-3.43,2.55-2.16,2.59-1.27,6.48-2.22,9.56-.39,1.51-.98,3.11-1.14,4.67-.3,2.09.76,3.75,2.55,4.97,1.38,1.12,2.3,1.07,2.17,2.34-1.12,5.87-2.56,15.51-4.06,21.96-5.6,17.19-23.23,24.35-38.66,30.42-4.41.93-5.83,7.5-4.04,10.58,1.92,1.77,5.15,1.76,7.55,2.63,6.87,1.72,13.91,2.38,20.86,2.17.57.03.95.16,1.04.45.25.6-1.19,2.14-2.22,3.49-3.34,4.7-8.07,9.76-7.28,15.79,1.41,5.56,8.97,5.73,13.57,3.94,3.03-.92,6.19-2.38,9.18-3.51,1.34-.47,2.1-.06,2.22,1.21.49,15.31-4.47,29.21-11.32,42.3-1.1,2-1.84,5.24.41,6.63,2.68,1.42,5.49-1.76,8.09-2.77,1.25-.57,5.38-1.95,4.72.6-3.81,6.01-7.25,7.57-13.2,12.65-1.47.94-3.16,2.99-4.42,3.37-.29.04-.55-.15-.82-.52-4.41-7.43-6.24-15.98-7.4-24.56-.97-6.62-2.57-18.4-3.77-25.69-2.71-17.49-15.82-29.96-22.48-45.67-7.92-17.49-13.9-37.24-20.45-55.12-1.8-5.06-3.57-10.48-6.28-15.11-1.89-3.24-4.18-5.5-6.58-5.37-6.4,1.16-7.62,15.78-6.59,26.52.92,6.72,3.85,19.42,4.61,24.27.76,2.25-1.93-1.1-2.97-1.84-2.16-2.23-5.72-5.05-8.69-2.5-2.88,2.68-4.82,8.87-4.16,12.9.76,4.36,3.38,11.66,3.56,15.66-.14.33-.55.62-.87.82-1.77,1.02-3.41,2.42-4.09,4.06-3.06,9.78,5.64,19.38,10.98,29.49.68,1.18,1.08,2.46.76,3.77-2.7,7.66.32,12.21,2,20.67.63,3.51,2.28,7.56,2.3,10.74-.12.77-.62,1.78-.82,2.68-2.04,6.83.29,12.09,3.25,18.58.73,1.5.47,3.07-.6,4.29-4.51,5.82,2.5,14.23,6.59,21.67.57,10.58,3.44,20.7,10.36,29.54.87,1.18,1.12,2.4.36,3.73-26.51,46.19-22.28,120.17,23.75,153.04,5.88,19.46,16.37,39.64,36.07,47.83,3.41,1.37,3.11,5.65,4.8,8.35,1.28,2.45,2.16,3.8,3.57,5.81,7.02,11.95,18.7,20.1,5.59,32.93-2.64,3.26-5.79,5.82-9.69,7.32-4.32,2.01-10.1,4.93-14.21,6.81-4.25,2.39-25.63,8.71-20.95,15.39,2.65,2.2,5.63,1.48,9.08,1.87,3.1.13,5.89.61,8.25,3.38.63.74,1.06,1.67,1.29,2.63.92,3.61-1.26,7.74.7,8.77,3.9,1.55,6.71-3.42,9.84-4.96,10.61-3.39,22.44-2.89,33.1-.1,1.94.71,4.03,3.03,5.98,3.62,1.8.66,2.76-1.13,2.5-2.61-.07-.88-.46-2.15-.38-2.61.98-9.29,3.43-32.54,3.81-36.05,2.95-18.88-14.15-24.96-16.79-33.57-.41-4.26.51-8.95-.1-13.29-.14-1.61-.72-3.27.12-4.73,1.87-2.49,4.36-4.62,6-7.31,2.39-3.48,4.08-7.43,5.02-11.58.33-1.33,1.4-2.08,2.78-2.09,7.76-.25,15.22-.91,22.81-2.77,1.3-.25,2.49-.05,3.61.66,9.47,6.69,20.21,11.37,32,11.77h.25c4.53.41,14.07-.13,18.24.68,6.67,4.78,14.96,9.6,18.71,17.42.99,1.98,1.39,3.32,2.19,5.37,2.84,7.44,7.61,19.96,10.55,27.65.82,2.08,5.25,13.48,6.27,16.07.94,2.36,4.61,4.26,6.84,2.27,3.6-3.07,5.57-8.62,8.63-12.4,2.95-1.02,12.75-2.27,18.66-3.3,2.99-.52,5.15-.39,5.92-3.17.15-2.43-1.15-6.78,1.04-9.32,3.71-5.46,18.34-15.26,6.68-20.09ZM735.83,207.25c1.72-2.94,3.42-6.13,3.97-9.97.35-5.57,10.37,4.41,12.13,6.42,23.56,33.06,24.66,71.53,23.69,111.06-.21,4.15-.16,9.23-.55,13.25-1.83,1.93-7.3,4.37-9.89,6.14-7.71,4.19-13.92,10.08-18.33,17.75-.25.28-1.24,2.52-1.14,1.26.47-6.51,1.81-21.2,2.03-26.17.32-5.72,1-17.41,1.15-20.22.04-.54-.22-1.01-.76-1.17-1.7-.3-2.16,2.27-2.23,3.49-.21,3.87-1.19,22.62-1.31,24.74v.11c-.2,2.06-1.38,14.09-1.71,17.68-.12,1.32.64,2.24.93,3.6.5,2.05-.98,3.57-2.98,3.6-5.34-.57-10.47.64-15.3,2.99-.95.4-1.9.86-2.86.96-2.42.1-6.08-.43-8.39-.52-.9-.08-1.37-.12-1.43-.37,5.05-10.52,14.28-23.36,18.09-35.17,3.08-10.77,7.06-26.5,9.97-37.23,2.6-8.53,3.71-17.08,2.81-25.96-.02-1.22.21-2.39.64-3.54,5.1-12.33,4.29-25.49-1.25-37.37-1.62-3.43-3.28-6.29-5.19-9.95-1.15-2.59-2.6-3.71-2.09-5.41ZM738.18,364.39c-1.94,3.56-5.43,6.6-7.98,9.66-5.96,6.54-13.47,12.43-20.07,18.17-.96.73-1.41,1.41-1.61,1.12l-.08-.15c-4.53-12.59-.57-32.38,16.12-23.13,1.04-.15,2.17-1.76,4.17-3.26,1.9-1.57,5.31-2.75,7.86-2.74.69-.02,1.52-.03,1.59.33ZM728.29,194.35c.43-2.15.83-4.15,1.18-5.89.04-.24.08-.38.42-.53.92-.5,3.46.19,3.93,1.49.59.95.52,2.09.4,3.19-.07.58-.14,1.15-.21,1.72.13,2.92-.5,7.06-1.92,9.03-1.47,2.2-4.56,4-5.1-.03-.37-3.03.46-3.93,1.3-8.98ZM713.15,187.32c1.56-.51,5.25-.12,7.04-.26,2.18-.31,5.82,1.47,4.6,4.18-1.94,4.1-1.99,9.99-5.42,13.36l-.22.15c-.98.8-3.06.38-4.18.18-1.35-.25-2.24-1.09-2.5-2.5-.22-1.23.06-2.49.15-3.73.16-2.54-.83-4.44-1.46-6.79-.43-1.59.18-4,1.99-4.59ZM689.69,189.1c.19-.83.81-2.56,1.65-2.95,1.45-.67,3.75-.24,5.6-.47,2.72,0,4.65-.5,6.96.29,2.2.74,2.27,4.05,1.98,5.86-.5,3.11-1.24,6.17-1.67,9.3-.17,1.3-.12,2.81-.48,4.07-.28,1-1.3,1.04-2.12,1.48l-.18.05c-.63.16-1.16-.88-1.55-1.22-.6-.52-1.32-.95-2.01-1.33-1.4-.78-2.93-1.34-4.51-1.65-.7-.13-1.48-.26-1.93-.82-.31-.39-.38-.93-.44-1.43-.18-1.48-.35-2.97-.53-4.45-.14-1.21-.53-2.23-.75-3.4-.2-1.1-.28-2.24-.02-3.33ZM671.19,196.46c.07-.35.2-.68.33-1.01.18-.44.37-.87.49-1.32.32-1.19.11-2.44.03-3.67-.11-1.68.09-3.34,1.8-4.04,1.45-.59,3.27-.26,4.74.14.7.27,1.82.23,2.27.94.19.31.26.68.32,1.04.22,1.2.33,2.46.65,3.63.65,2.36,3.47,4.52,1.95,7.11-.52.88-1.4,1.48-2.28,2.02-.76.46-1.55.9-2.42,1.1-2.15.49-3.49-1.17-5.06-2.36-1.28-.97-3.24-1.65-2.82-3.58ZM638.01,264.01c-.88-.15-1.79-.31-2.53-.82-.73-.51-1.22-1.49-.9-2.32.28-.74,1.07-1.13,1.79-1.45,9.47-4.23,20.88-8.06,27.09-16.95,2.74-3.5,5.04-7.62,6.99-11.66.33-.63.58-1.01,1.01-1.14,2.88-.35,10.02-.93,12.41-1.03.58.17.59.9.72,1.51,1.02,6.18,3.74,11.93,8.04,16.37,1.44,1.58,6.97,7.4,7.64,8.25,0,.05,0,.15-.01.2-.07.03-.22.1-.29.14-1.3.32-4.78.84-6.32,1.28-4.08,1.58-8.01,3.32-11.96,5.18-2.92,1.38-5.98,2.47-9.11,3.26-1.85.47-3.74.83-5.63,1.08-9.62,1.26-19.37-.3-28.94-1.9ZM654.72,291.28l-.35.11c-1.53.5-5.27.88-6.11-.7.13-.39.26-.77.41-1.15.11-.3.24-.6.37-.89.07-.17.15-.33.23-.5.14-.32.3-.64.46-.95.11-.21.22-.42.34-.62t.01-.02c.2-.36.4-.71.62-1.06.48-.79,1.01-1.56,1.56-2.32.23-.32.46-.64.71-.95.01,0,.02-.03.03-.04.28-.37.57-.73.87-1.09.29-.37.59-.72.9-1.08,1.44-1.69,2.96-3.34,4.45-5.01.39-.44.79-.88,1.17-1.32.59-.53,1.27-.87,2.05-1.03,4.95-.59,10.21-1.85,14.88-3.59,5.39-1.99,17.32-6.54,20.33-7.64.28-.08.23.16-.09.73-.15.26-.3.51-.45.76s-.3.5-.46.74c-.67,1.06-1.39,2.05-2.17,2.99-.28.34-.56.67-.86,1-.4.44-.81.87-1.23,1.28-.17.17-.34.34-.52.51-.11.1-.22.2-.33.3-.23.22-.46.43-.7.63-.02.02-.05.04-.07.06-.01,0-.01.01-.02.01-.7.62-1.44,1.21-2.2,1.77-10.4,7.7-21.37,14.32-33.83,19.07ZM664.66,333.77c-.38-.25.18-1.25.35-1.71,5.7-12.96,10.46-28.33,7.7-41.64-.11-.66-.11-1.09.24-1.4.73-.56,3.06-1.77,5.25-3.05,2.43-1.12,4.05-3.06,6.56-2.72,1.54.19,3.49,1,3.31,2.39.21,1.95.26,5.29.21,7.73.23,14.78-5.71,28.25-13.3,40.75l-.16.15c-1.02.46-2.57-.04-5.02-.06-2.25-.2-4.62-.15-5.14-.44ZM596.86,388.14c-1.43-4.09,3.45.77,5.28-.04,1.48-.48,2.63-2.77,1.37-4.16-5.8-6.29-13.19-12.78-15.48-22.16-.17-.6-.46-1.99-.4-2.34.06-.3.41.16,1,.91.64.83,1.55,1.99,2.57,3.29,2.95,3.77,6.75,8.66,7.92,10.13.38.47.73.75,1.34.98.68.26,1.57.36,2.32.26,1.94-.36,1.99-3.05,1.15-4.36-1.74-2.52-7.63-10.58-10.17-14.19-3.66-5.04-7.3-10.34-8.22-16.71-.06-.57-.46-2.55.41-1.52,1.53,1.85,5.12,7.39,6.68,8.96l.2.14c1.19.76,3.96,1.32,4.9.1,2.28-2.35-9.49-13.53-12.49-24.73-1.56-4.75-2.69-14.11-3.5-18.19-.12-.8.37.13,1.55,1.87.96,1.44,2.24,3.37,3.34,5.03,2.12,2.86,2.05,4.33,5.05,4.9,1.83.15,2.86-2.9,2.14-4.34-2.19-3.59-16.14-25.99-18.83-30.43-.96-1.21-9.06-17.42-2.55-12.92,1.94,1.31,2.41,1.95,3.41,3.6,1.51,2.44,4.95,7.98,6.88,11.08.82,1.27,1.14,1.96,1.71,2.53,2.11,2.03,5.86,1.67,5.05-2.26-.15-.6-.44-1.18-.79-1.73-8.16-11.9-15.32-24.93-16.66-39.42.08-1.11.92-7.91,2.73-5.33,3.47,4.36,8.06,8.93,11.09,13.65,2.56,3.54,2.27,9.26,6.33,10.85,2.26.28,3.83-2.1,2.8-4.11-3.79-10.18-17.96-58.84-9.36-65.04,3.15,4.27,4.32,9.67,6.24,14.55,2.19,6.22,6.52,18.5,8.96,25.4,5.11,14.61,10.46,29.52,18.31,42.83,6.45,10.23,13.8,19.91,15.7,31.99,1.59,9.39,2.96,20.42,4.38,29.59,1.2,7.84,3.13,15.16,7.25,22.28.4.74.96,1.57.77,2.34-1.51,2.27-6.11,5.67-8.14,7.78-2.77,2.68-29.59,29.32-31.79,31.52-.6.65-2.14,3.05-3.08,2.47-3.64-4.37-5.58-10.01-7.37-15.05ZM695.3,646.81c2.9,4.47,3.37,10.39,2.56,15.65-.71,6.7-1.59,14.89-2.35,22.06-.38,3.55-.7,6.5-.85,7.98-.08.76,0,1.09-.88.94-12.96-3.13-25.28-2.85-38.68-.12l-.14-.03c-.13-.06-.07-.24.15-.55,1.76-2.34,4.43-5.17,5.75-7.3.41-1.19-1.13-2.49-2.1-1.23-1.76,1.67-4.4,5.17-6.26,6.45-.25.05-.47-.09-.72-.35-1.41-1.84-3.12-3.44-5.23-4.51-1.75-.97-3.99-1.7-6.06-2.44-.55-.24-.83-.48-.7-.75,17.47-8.3,36.13-11.75,44.62-29.17,4.48-7.98-.55-16.34-5.24-22.92-3.29-5.01-7.4-11.29-10.49-16.01-.49-.79-.86-1.13-.51-1.18.4-.06,2.86.1,5.63.2,2.06.18,5.23,0,6.73.49.72.46.63,2.57.62,4.22-.22,5.48-1.87,10.66,2,15.68,3.47,4.38,8.95,8.6,12.15,12.89ZM776.34,592.82c-20.96,2.36-41.8-3.52-55.65-19.16-1.33-1.29-1.85-3.64-3.67-4.2-2.74-.64-3.89,3.26-2.53,5.25.73,1.27,1.59,2.35,2.55,3.86,1.23,1.88,2.02,2.69-.23,3.07-17.21,2.67-35.47,2.43-50.76-6.08-2.01-1.38-5.61-3.99-7.59-5.15-5.29-1.7-5.62,3.85-1.35,6.11,2.71,1.71,6.04,4.3,8.8,5.82,7.22,4.22,16.03,5.08,24.37,6.25,1,.23,1.64.74,1.5,1.85-.97,4.99-7.55,16.59-12.86,17.11-3.35-.27-8.47.2-12.02-.46-7.66-1.38-19.68-10.17-24.3-17.15-3.33-5.92-8-14.11-10.2-19.08-1.09-2.62-1.37-5.62-1.55-8.45-.17-1.46-1.06-2.47-2.25-3.27-37.86-25.76-45.05-77.84-34.22-119.62,5.73-27.84,25.38-45.79,45.35-64.19,8.07-7.38,16.57-14.48,25.33-21.31,18.1-14.83,30.87-43.64,28.47-66.09-.33-1.94,1.41-2.18,2.96-2.12,8.56.14,18.66-1.14,20.73-4.92.4-.68.37-1.6-.49-2.38-.94-.93-2.59-1.09-3.88-.71-3.61,1.1-7.22,1.92-10.83,2.13-1.33.09-13.99.42-11.09-2.24,7.43-5.96,12.15-11.99,14.91-21.26,1.14-3.68-1.37-6.61-4.06-8.78-4.95-4.31-10.18-9.98-11.03-16.83-.27-1.66-.49-3.46-1.13-4.98-1.06-3.12-4.53-3.74-7.4-3.26-2.79.09-8.52,1.29-9.69.77-.03-2.37,1.82-11.74,2.19-15.04.15-1.03,1.12-.95,1.98-.81,2.65.68,5.41-.19,7.96.29,1.92.56,3.64,3.14,5.89,2.25,1.12-.33,2.36-1.04,3.55-.73,1.38.43,2.48,1.73,3.84,2.31,3.35,1.85,7.13-.17,10.13-2.42,2.1-1.34,4.09.98,6.17,1.38,2.46.79,4.98-.21,7.29-1.71,1.16-.79,2.13-1.61,3.56-.82,2.47,1.39,5.09,2.39,6.41,5.04,10.06,16.54,15.44,33.52,4.33,49.63-1.03,1.78-3.11,3.39-3.29,5.5.23,4.84,6.16-.79,5.86,3.27-1.2,13.21-5.7,25.71-8.6,38.68-3.37,13.25-8.28,25.87-15.69,37.32-8.95,13.73-16.17,31.66-11.16,47.23.43,1.43.1,2.73-.74,4.08-5.43,7.22-9.55,17.55-6.35,19.32.57.38,1.36.41,2.04.32,1.59-.21,1.88-1.12,2.48-2.94.54-1.68,1.16-4,2.28-6.48,1.3-2.94,3.38-5.89,5.82-8.12,2.96-2.66,19.94-17.68,26.6-23.71,4.28-4.03,8.06-8.85,11.34-13.78,4.04-5.58,6.72-12.46,11.66-17.31,3.04-2.97,6.65-5.25,10.32-7.41,18.51-10.31,34.23-23.72,48.72-38.96,9.55-9.83,26.17-26.15,35.53-35.58,2.02-1.92,2.83-3.03,4.16-4.04.5-.21,2.25-1.07,3.2-.64,1.33.73,1.18,3.6.48,5.1-6.2,15.04-13.74,29.2-23.96,41.85-3.54,4.52-11.68,14.85-13.54,17.26-.96,1.07-.04,4.25,1.69,4.36,1.48,0,3.31-1.75,4.52-2.77,6.39-5.57,16.8-13.98,22.67-15.77.59-.13.83-.02.92.34.82,2.91-7.86,20.84-17.24,30.01-2.43,2.36-3.94,3.42-6.59,5.65-6.54,5.74-14.23,11.01-16.89,14.46-1.51,2.51.13,4.25,2.92,3.88,2.75-1.03,6.79-4.72,10.62-7.22,2.35-1.84,2-1.04,1.32.38-2.61,5.02-7.34,7.86-11.29,11.74-3.12,2.82-8.02,7.26-10.85,9.82-1.39,1.36-3.7,2.68-2.88,5,.21,1.1,3.37,2.02,1.6,3.02-3.59,2.37-8.87,5.84-12.17,8.04-1.57,1-2.51,4.53-.32,5.47,2.98,1.22,6.94-3.88,12.54-6.24,2-.86,2.41-.04,1.63,1.24-3.5,5.75-10.25,7.29-15.09,11.25-.73.56-1.44,1.32-1.51,2.25-.27,3.51,3.95,2.04,6.04,2.15.86,0,1.13.21.86.69-6.45,7.97-17.15,12.07-27.32,10.96-1.32-.04-3.32-.26-4.19.75-1.04,1.33.17,4.27,1.82,4.51,1.51.51,7.72.69,8.56,1.61-6.68,7.99-18.36,9.7-28.56,10.25-2.4-.16-3.67,2.72-1.89,4.31,1.02.76,3.96,1.32,3.91,2.07.02.22-.17.45-.49.69-3.65,2.56-8.77,3.53-13.36,3.35-2.92-.01-7.24-.34-9.41-.07-2.3.65-3.56,3.48-.81,4.89,2.52,1.61,6.69-.17,8.42,2.76,8.3,11.3,19.24,17.34,31.39,24.15l.2.11c2.76,1.6,21.65,12.1,25,14.04.76.4,1.34.52,2.48.54,3.07.17,2.76-3.98.67-5.27-1-.92-3.03-1.65-3.57-2.81,0-.26.34-.42.9-.58,4.08-.94,8.01-2.28,11.32-4.21,3.14-1.74,5.95-4.15,8.32-6.78.57-.54,1.05-.7,1.01.22-.38,3.61-4.38,6.03-5.56,8.13-.68,1.14-.29,2.58.59,3.28,2,1.3,4.58-1.08,6.72-2.25,1.57-.93,2.93-1.66,4.48-2.37.95-.32,1.79-1.05,2.62-.63.7,1.12,1.24,7.56-2.31,11.94-.98,1.44-2.77,3.09-2.29,4.9.25.91,1.15,1.34,2.01,1.5,1.25.52,4.4-1.69,5.02-.15.25,3.17-.63,6.52-1.79,9.26-1.02,2.38-2.68,4.5-4.55,6.37-11.91,11.28-11.82,28.16-24.4,38.69-.79.02-1-.96-1.22-1.73-2.23-8.79-10-30.19-15.05-26.42-1.16,1.44-.94,4.09.21,5.66,6.95,10.81,10.03,22.17,10.55,34.86-.26,5.42,3.3,12.09-.03,16.99-1.84,1.66-6.17,6.09-8.55,7.87ZM848.26,645.82l-.19.21c-8.95,2.67-21.37,1.47-25.89,11.7-.63,1.03-1.39,2.29-2.03,3.19-.49.68-.81.93-1.04.55-1.96-5-4.95-13.22-6.73-17.92-5.57-13.84-8.15-24.09-13.71-33.78-3.64-6.32-10.05-9.31-15.62-13.43-1.16-.83-1.74-1.04-1.31-1.51.36-.4,1.51-1.32,2.77-2.42,1.77-1.21,2.85-3.17,4.18-2.86,4.71,6.2,8.34,13.2,14.93,17.53,3.83,2.5,7.98,3.15,12.33,4.59,5.11,1.52,11.81,3.54,16.69,4.97,6.35,1.7,20.65,5.47,27.82,8.5.43.47-.32,1.18-.73,1.65-5.36,5.67-10.25,11.67-11.47,19.03Z" fill="#282726"></path><path d="M860.46,625.14c-7.17-3.03-21.47-6.8-27.82-8.5-4.88-1.43-11.58-3.45-16.69-4.97-4.35-1.44-8.5-2.09-12.33-4.59-6.59-4.33-10.22-11.33-14.93-17.53-1.33-.31-2.41,1.65-4.18,2.86-1.26,1.1-2.41,2.02-2.77,2.42-.43.47.15.68,1.31,1.51,5.57,4.12,11.98,7.11,15.62,13.43,5.56,9.69,8.14,19.94,13.71,33.78,1.78,4.7,4.77,12.92,6.73,17.92.23.38.55.13,1.04-.55.64-.9,1.4-2.16,2.03-3.19,4.52-10.23,16.94-9.03,25.89-11.7l.19-.21c1.22-7.36,6.11-13.36,11.47-19.03.41-.47,1.16-1.18.73-1.65ZM810.81,617.71c3.07,1.06,5.39,2.22,8.64,4.55-3.53,2.08-7.9.06-8.64-4.55ZM846.62,643.23c-.51.37-2.22.85-2.89.77-2.46-1.43-8.57-6.37-9.39-6.85-.81-.87-2.04-2.1-.76-3.07.8-.24,2.16.71,2.96,1.26,2.14,1.58,6.91,5.11,8.75,6.47l.05.04c.07.05.87.66,1.21.93.27.2.28.27.07.45Z" fill="#ffc99c"></path><path d="M695.3,646.81c-3.2-4.29-8.68-8.51-12.15-12.89-3.87-5.02-2.22-10.2-2-15.68,0-1.65.1-3.76-.62-4.22-1.5-.49-4.67-.31-6.73-.49-2.77-.1-5.23-.26-5.63-.2-.35.05.02.39.51,1.18,3.09,4.72,7.2,11,10.49,16.01,4.69,6.58,9.72,14.94,5.24,22.92-8.49,17.42-27.15,20.87-44.62,29.17-.13.27.15.51.7.75,2.07.74,4.31,1.47,6.06,2.44,2.11,1.07,3.82,2.67,5.23,4.51.25.26.47.4.72.35,1.86-1.28,4.5-4.78,6.26-6.45.97-1.26,2.51.04,2.1,1.23-1.32,2.13-3.99,4.96-5.75,7.3-.22.31-.28.49-.15.55l.14.03c13.4-2.73,25.72-3.01,38.68.12.88.15.8-.18.88-.94.15-1.48.47-4.43.85-7.98.76-7.17,1.64-15.36,2.35-22.06.81-5.26.34-11.18-2.56-15.65ZM677.05,673.4l-.07.09c-1.53,1.06-6.02,5.09-7.65,5.9-.64.05-2.12-.3-2-.68.07-.33.5-1.13.78-1.54,1.7-1.62,4.78-3.96,6.64-5.56.59-.47,2.57-1.15,2.92-.87.37.36-.29,2.36-.62,2.66ZM682.75,667.87c-1.38-2.21.6-4.16,2.03-5.87l1.17-1.4c.24-.29.95-.37,1.33-.44,1.73-.32.79,4.55-4.53,7.71Z" fill="#ffc99c"></path><path d="M688.28,293.37c.23,14.78-5.71,28.25-13.3,40.75l-.16.15c-1.02.46-2.57-.04-5.02-.06-2.25-.2-4.62-.15-5.14-.44-.38-.25.18-1.25.35-1.71,5.7-12.96,10.46-28.33,7.7-41.64-.11-.66-.11-1.09.24-1.4.73-.56,3.06-1.77,5.25-3.05,2.43-1.12,4.05-3.06,6.56-2.72,1.54.19,3.49,1,3.31,2.39.21,1.95.26,5.29.21,7.73Z" fill="#ffe4d9"></path><path d="M751.93,203.7c-1.76-2.01-11.78-11.99-12.13-6.42-.55,3.84-2.25,7.03-3.97,9.97-.51,1.7.94,2.82,2.09,5.41,1.91,3.66,3.57,6.52,5.19,9.95,5.54,11.88,6.35,25.04,1.25,37.37-.43,1.15-.66,2.32-.64,3.54.9,8.88-.21,17.43-2.81,25.96-2.91,10.73-6.89,26.46-9.97,37.23-3.81,11.81-13.04,24.65-18.09,35.17.06.25.53.29,1.43.37,2.31.09,5.97.62,8.39.52.96-.1,1.91-.56,2.86-.96,4.83-2.35,9.96-3.56,15.3-2.99,2-.03,3.48-1.55,2.98-3.6-.29-1.36-1.05-2.28-.93-3.6.33-3.59,1.51-15.62,1.7-17.68v-.11c.13-2.12,1.11-20.87,1.32-24.74.07-1.22.53-3.79,2.23-3.49.54.16.8.63.76,1.17-.15,2.81-.83,14.5-1.15,20.22-.22,4.97-1.56,19.66-2.03,26.17-.1,1.26.89-.98,1.14-1.26,4.41-7.67,10.62-13.56,18.33-17.75,2.59-1.77,8.06-4.21,9.89-6.14.39-4.02.34-9.1.55-13.25.97-39.53-.13-78-23.69-111.06ZM724.3,358.97l-.12-.03c-.91-2.27.46-6.88.53-9.61.23-3.39,1.5-5.88,2.69-.9.61,3.38-.31,8.6-3.1,10.54ZM727.42,344.21c-.82,0-1.48-.66-1.48-1.49s.66-1.48,1.48-1.48,1.49.66,1.49,1.48-.66,1.49-1.49,1.49ZM750.94,289.16c-3.38-.59-3.23-5.63-.17-6.44.73.83.86,4.96.17,6.44ZM765.46,261.08l-.07-.03c-2.52-2.73-4.09-8.23-5.54-12.04-2.73-8.3-5.78-16.55-9.65-24.18-1.43-2.97-3.17-6.54-4.15-9.43-.51-1.54-.54-2.36-.08-2.34,2.77,1.49,5.08,5.95,6.9,8.87,4.58,8.35,7.94,17.87,10.85,27.28.92,3.2,1.9,7.04,2.18,10.1.09,1.28-.06,1.9-.44,1.77ZM770.57,285.04c-1.06,1.85-2.68,0-2.83-1.49.08-1.87-3.67-14.35.46-12.34l.19.17c1.29,1.76,1.32,6.68,1.92,9.1.21,1.91.77,3.06.26,4.56Z" fill="#ffe4d9"></path><path d="M646.47,359.08c-4.12-7.12-6.05-14.44-7.25-22.28-1.42-9.17-2.79-20.2-4.38-29.59-1.9-12.08-9.25-21.76-15.7-31.99-7.85-13.31-13.2-28.22-18.31-42.83-2.44-6.9-6.77-19.18-8.96-25.4-1.92-4.88-3.09-10.28-6.24-14.55-8.6,6.2,5.57,54.86,9.36,65.04,1.03,2.01-.54,4.39-2.8,4.11-4.06-1.59-3.77-7.31-6.33-10.85-3.03-4.72-7.62-9.29-11.09-13.65-1.81-2.58-2.65,4.22-2.73,5.33,1.34,14.49,8.5,27.52,16.66,39.42.35.55.64,1.13.79,1.73.81,3.93-2.94,4.29-5.05,2.26-.57-.57-.89-1.26-1.71-2.53-1.93-3.1-5.37-8.64-6.88-11.08-1-1.65-1.47-2.29-3.41-3.6-6.51-4.5,1.59,11.71,2.55,12.92,2.69,4.44,16.64,26.84,18.83,30.43.72,1.44-.31,4.49-2.14,4.34-3-.57-2.93-2.04-5.05-4.9-1.1-1.66-2.38-3.59-3.34-5.03-1.18-1.74-1.67-2.67-1.55-1.87.81,4.08,1.94,13.44,3.5,18.19,3,11.2,14.77,22.38,12.49,24.73-.94,1.22-3.71.66-4.9-.1l-.2-.14c-1.56-1.57-5.15-7.11-6.68-8.96-.87-1.03-.47.95-.41,1.52.92,6.37,4.56,11.67,8.22,16.71,2.54,3.61,8.43,11.67,10.17,14.19.84,1.31.79,4-1.15,4.36-.75.1-1.64,0-2.32-.26-.61-.23-.96-.51-1.34-.98-1.17-1.47-4.97-6.36-7.92-10.13-1.02-1.3-1.93-2.46-2.57-3.29-.59-.75-.94-1.21-1-.91-.06.35.23,1.74.4,2.34,2.29,9.38,9.68,15.87,15.48,22.16,1.26,1.39.11,3.68-1.37,4.16-1.83.81-6.71-4.05-5.28.04,1.79,5.04,3.73,10.68,7.37,15.05.94.58,2.48-1.82,3.08-2.47,2.2-2.2,29.02-28.84,31.79-31.52,2.03-2.11,6.63-5.51,8.14-7.78.19-.77-.37-1.6-.77-2.34ZM578.79,258.41c-.84-1.01.48-4.04,2.08-3.68l1.08,5.65c-1.24-.53-2.64-1.34-3.16-1.97ZM584.72,292.76c-1.9.81-4.68-4.25-3.59-5.59.44-.55,1.15-.95,1.87-.82l.3.08c1.38.64,4.28,5.76,1.42,6.33ZM596.43,336.06c-2.49-2.01-4.16-5.84-3.33-9.04.18-.6.46-.95.79-.97l.18.02c2.05,1.37,3.41,5.92,4.7,8.24,1.05,2.18.52,4.07-2.34,1.75ZM616.97,282.29l-.06.05c-7.18-2.09-22.59-35.27-21.06-42.73.27-.22.79.24,1.47,1.3,1.39,2.18,2.77,5.43,3.83,8.07,3.1,8.09,7.72,16.42,12.26,24.42,1.19,2.5,4.07,6.64,3.56,8.89ZM630.38,333.81c-2.32,3.15-4.16-11.13-4.35-13.09-.87-5.99-1.96-12.35-2.97-18.3-.86-4.09-.77-9.26,1.5-5.55,1.86,3.66,2.46,8.82,3.25,12.74l.07.37c.9,5.5,1.59,11.69,2.33,17.21.22,2.24.77,4.54.17,6.62ZM634.76,357.39l-.17.09c-2.63-.7-3.19-5.17-2.02-7.4.62-1.33,1.45-1.57,1.86-.44.45,2.01,1.22,5.97.33,7.75Z" fill="#f7ede2"></path><path d="M690.77,270.43c-.71.62-1.45,1.21-2.22,1.78-10.4,7.7-21.37,14.32-33.83,19.07l-.35.11c-1.53.5-5.27.88-6.11-.7,1.01-3.12,2.72-5.88,4.74-8.5,10.62-2.11,25.16-5.79,37.77-11.76Z" fill="#ffb883"></path><path d="M692.63,246.52c-4.3-4.44-7.02-10.19-8.04-16.37-.13-.61-.14-1.34-.72-1.51-2.39.1-9.53.68-12.41,1.03-.43.13-.68.51-1.01,1.14-1.95,4.04-4.25,8.16-6.99,11.66-6.21,8.89-17.62,12.72-27.09,16.95-.72.32-1.51.71-1.79,1.45-.32.83.17,1.81.9,2.32.74.51,1.65.67,2.53.82,9.57,1.6,19.32,3.16,28.94,1.9,1.89-.25,3.78-.61,5.63-1.08,3.13-.79,6.19-1.88,9.11-3.26,3.95-1.86,7.88-3.6,11.96-5.18,1.54-.44,5.02-.96,6.32-1.28.07-.04.22-.11.29-.14.01-.05.01-.15.01-.2-.67-.85-6.2-6.67-7.64-8.25ZM652.69,259.18c-1,.46-2.66,1.36-3.34,1.3-.82-.07-1.92-2.3-.98-2.93.98-.51,2.88-1.61,3.85-1.59l.21.1c.67.78,1.58,2.62.26,3.12ZM665.21,248.76c-1.31,1.79-4.25,2.84-4,0,1.02-2.92,4.26-5.27,6.14-7.73,1.18-1.36,2.19-2.37,3.18-2.38h.24c3.8,1.76-4.24,8.07-5.56,10.1Z" fill="#ffb883"></path><path d="M836.53,306.42c10.22-12.65,17.76-26.81,23.96-41.85.7-1.5.85-4.37-.48-5.1-.95-.43-2.7.43-3.2.64-1.33,1.01-2.14,2.12-4.16,4.04-9.36,9.43-25.98,25.75-35.53,35.58-14.49,15.24-30.21,28.65-48.72,38.96-3.67,2.16-7.28,4.44-10.32,7.41-4.94,4.85-7.62,11.73-11.66,17.31-3.28,4.93-7.06,9.75-11.34,13.78-6.66,6.03-23.64,21.05-26.6,23.71-2.44,2.23-4.52,5.18-5.82,8.12-1.12,2.48-1.74,4.8-2.28,6.48-.6,1.82-.89,2.73-2.48,2.94-.68.09-1.47.06-2.04-.32-3.2-1.77.92-12.1,6.35-19.32.84-1.35,1.17-2.65.74-4.08-5.01-15.57,2.21-33.5,11.16-47.23,7.41-11.45,12.32-24.07,15.69-37.32,2.9-12.97,7.4-25.47,8.6-38.68.3-4.06-5.63,1.57-5.86-3.27.18-2.11,2.26-3.72,3.29-5.5,11.11-16.11,5.73-33.09-4.33-49.63-1.32-2.65-3.94-3.65-6.41-5.04-1.43-.79-2.4.03-3.56.82-2.31,1.5-4.83,2.5-7.29,1.71-2.08-.4-4.07-2.72-6.17-1.38-3,2.25-6.78,4.27-10.13,2.42-1.36-.58-2.46-1.88-3.84-2.31-1.19-.31-2.43.4-3.55.73-2.25.89-3.97-1.69-5.89-2.25-2.55-.48-5.31.39-7.96-.29-.86-.14-1.83-.22-1.98.81-.37,3.3-2.22,12.67-2.19,15.04,1.17.52,6.9-.68,9.69-.77,2.87-.48,6.34.14,7.4,3.26.64,1.52.86,3.32,1.13,4.98.85,6.85,6.08,12.52,11.03,16.83,2.69,2.17,5.2,5.1,4.06,8.78-2.76,9.27-7.48,15.3-14.91,21.26-2.9,2.66,9.76,2.33,11.09,2.24,3.61-.21,7.22-1.03,10.83-2.13,1.29-.38,2.94-.22,3.88.71.86.78.89,1.7.49,2.38-2.07,3.78-12.17,5.06-20.73,4.92-1.55-.06-3.29.18-2.96,2.12,2.4,22.45-10.37,51.26-28.47,66.09-8.76,6.83-17.26,13.93-25.33,21.31-19.97,18.4-39.62,36.35-45.35,64.19-10.83,41.78-3.64,93.86,34.22,119.62,1.19.8,2.08,1.81,2.25,3.27.18,2.83.46,5.83,1.55,8.45,2.2,4.97,6.87,13.16,10.2,19.08,4.62,6.98,16.64,15.77,24.3,17.15,3.55.66,8.67.19,12.02.46,5.31-.52,11.89-12.12,12.86-17.11.14-1.11-.5-1.62-1.5-1.85-8.34-1.17-17.15-2.03-24.37-6.25-2.76-1.52-6.09-4.11-8.8-5.82-4.27-2.26-3.94-7.81,1.35-6.11,1.98,1.16,5.58,3.77,7.59,5.15,15.29,8.51,33.55,8.75,50.76,6.08,2.25-.38,1.46-1.19.23-3.07-.96-1.51-1.82-2.59-2.55-3.86-1.36-1.99-.21-5.89,2.53-5.25,1.82.56,2.34,2.91,3.67,4.2,13.85,15.64,34.69,21.52,55.65,19.16,2.38-1.78,6.71-6.21,8.55-7.87,3.33-4.9-.23-11.57.03-16.99-.52-12.69-3.6-24.05-10.55-34.86-1.15-1.57-1.37-4.22-.21-5.66,5.05-3.77,12.82,17.63,15.05,26.42.22.77.43,1.75,1.22,1.73,12.58-10.53,12.49-27.41,24.4-38.69,1.87-1.87,3.53-3.99,4.55-6.37,1.16-2.74,2.04-6.09,1.79-9.26-.62-1.54-3.77.67-5.02.15-.86-.16-1.76-.59-2.01-1.5-.48-1.81,1.31-3.46,2.29-4.9,3.55-4.38,3.01-10.82,2.31-11.94-.83-.42-1.67.31-2.62.63-1.55.71-2.91,1.44-4.48,2.37-2.14,1.17-4.72,3.55-6.72,2.25-.88-.7-1.27-2.14-.59-3.28,1.18-2.1,5.18-4.52,5.56-8.13.04-.92-.44-.76-1.01-.22-2.37,2.63-5.18,5.04-8.32,6.78-3.31,1.93-7.24,3.27-11.32,4.21-.56.16-.91.32-.9.58.54,1.16,2.57,1.89,3.57,2.81,2.09,1.29,2.4,5.44-.67,5.27-1.14-.02-1.72-.14-2.48-.54-3.35-1.94-22.24-12.44-25-14.04l-.2-.11c-12.15-6.81-23.09-12.85-31.39-24.15-1.73-2.93-5.9-1.15-8.42-2.76-2.75-1.41-1.49-4.24.81-4.89,2.17-.27,6.49.06,9.41.07,4.59.18,9.71-.79,13.36-3.35.32-.24.51-.47.49-.69.05-.75-2.89-1.31-3.91-2.07-1.78-1.59-.51-4.47,1.89-4.31,10.2-.55,21.88-2.26,28.56-10.25-.84-.92-7.05-1.1-8.56-1.61-1.65-.24-2.86-3.18-1.82-4.51.87-1.01,2.87-.79,4.19-.75,10.17,1.11,20.87-2.99,27.32-10.96.27-.48,0-.69-.86-.69-2.09-.11-6.31,1.36-6.04-2.15.07-.93.78-1.69,1.51-2.25,4.84-3.96,11.59-5.5,15.09-11.25.78-1.28.37-2.1-1.63-1.24-5.6,2.36-9.56,7.46-12.54,6.24-2.19-.94-1.25-4.47.32-5.47,3.3-2.2,8.58-5.67,12.17-8.04,1.77-1-1.39-1.92-1.6-3.02-.82-2.32,1.49-3.64,2.88-5,2.83-2.56,7.73-7,10.85-9.82,3.95-3.88,8.68-6.72,11.29-11.74.68-1.42,1.03-2.22-1.32-.38-3.83,2.5-7.87,6.19-10.62,7.22-2.79.37-4.43-1.37-2.92-3.88,2.66-3.45,10.35-8.72,16.89-14.46,2.65-2.23,4.16-3.29,6.59-5.65,9.38-9.17,18.06-27.1,17.24-30.01-.09-.36-.33-.47-.92-.34-5.87,1.79-16.28,10.2-22.67,15.77-1.21,1.02-3.04,2.77-4.52,2.77-1.73-.11-2.65-3.29-1.69-4.36,1.86-2.41,10-12.74,13.54-17.26ZM704.67,232.61c-2.43-.88-3.86-4.88-4.17-7.73-.4-3.35,1.37-8.72,5.79-9.53,2.96-.11,4.69,7.68,5.04,10.08l.02.27c.38,3.49-2.68,8.33-6.68,6.91ZM719.31,317.84c.57-2.84,2.76-13.69,2.89-14.32.57.03,2.62.69,2.77.69l.04.02c-.73,3.43-2.19,10.32-2.97,13.98-.09.24.07.29-.29.29-.52,0-1.81.03-2.53.02-.1,0,.02-.24.09-.68ZM607.47,494.32c-.03.61.01,2.01-.84,2.42-.85.4-1.77.3-1.79-.29-.37-3.05-1.6-13.24-2.11-17.9-1.67-16.12,1.42-32.26,6.38-47.56.61-2.01,1.92-3.71,3.97-4.47,2.05-.7-.03,2.53-.18,3.37-5.61,13.98-8.12,29.33-7.61,44.36.42,6.16,1.64,13.83,2.18,19.87v.2ZM619.89,525.99c-.62-.07-1.18-1.36-1.71-1.84-3.87-4.7-8.5-9.28-7.88-16.05.21.15,2.44,3.54,4.74,6.84,1.34,1.95,4.4,6.41,5.15,7.5l.07.12c.53.66.61,3.01-.37,3.43ZM680.09,594.29l2.98.79-.62,2.38-2.99-.78.63-2.39ZM670.32,598.67c-1.78,3.45-7.1,3.3-8.74-.84l8.74.84ZM647.38,458.25c.32.11.48.31.48.6-.53,2.08-1.91,4.57-1.88,6.77.89,6.77,5.41,24.12,6.17,28.74l-.05.07c-1,.47-2.94-.89-3.17-2.07-2.63-8.08-10.26-35.43-1.55-34.11ZM653.38,591.49c-1.48-.06-2.79-.97-3.9-1.87l-.27-.24c-1.32-1.09-2.52-3.53-.45-4.07,1.55-.46,2.46-1.98,3.04-3.52.27-.57.73-1.55,1.33-.95,1.14,1.68,3.34,10.33.25,10.65ZM702,350.26c1.98-3.67,5.87-11.08,7.64-14.3l.08.03c.13.06,1.9.99,2.4,1.26.4.22.12.24-.04.68-.97,1.82-1.89,3.55-3.12,5.86-2.21,4.1-4.13,7.83-5.63,10.53-.07.05-.33-.11-.93-.42-2.35-1.25-1.99-.48-.4-3.64ZM697.26,358.89c.35-.49,1.03-.64,1.58-.5.89.11.41,1.46.28,2.54-5.37,10.57-6.81,21.86-1.34,33.04l.11.33c.1.56.71,2.64-.31,2.58-.69-.18-1.84-.5-2.21-1.18-5.71-11.72-5-25.52,1.89-36.81ZM677.08,527.07c-3.79-.44-7.06-3.66-9.83-6.35-3.05-3.41-7.59-8.15-4.16-8.62,4.17,4.13,10.31,10.92,14.09,14.97h-.1ZM691.28,536.06c-.77-1.06-.94-3.6.08-5.28l3.9,6.12c-1.99.16-3.39-.04-3.98-.84ZM776.47,572.67c.45,1.03-.11,3.58.39,4.3l.12.05c1.18-.13,4.6-4.77,3.87-.19-1.87,7.01-7.54,6.55-7.32-1.49-.22-2.34,1.83-5.84,2.94-2.67ZM807.17,515.24c-2.42,3.09-7.66,8.57-10.17,11.51l-.08-.03c-3.74-3.06,6.57-12.22,10.25-11.48ZM794.23,536.02c.49-.55.35-.85.81-.66.44.15,1.46.45,1.53.51-.21.87-2.91,6.4-3.38,7.55l-.04.03c-.42.14-2.27.8-2.59.9-.23.09-.36.08-.48-.15-.56-2.97,2.7-5.75,4.15-8.18ZM742.98,580.53c.84.02,1.97.08,3,.09.42-.01.87-.05,1.13-.2.57-.39,1.2-1.9,1.55-2.35.17-.3.15-.12.48.03,1.52.9,7.15,4.3,7.75,4.66l-.09.05c-3.71,1.64-8.45,2.12-12.15.41-2.62-1.2-3.37-2.87-1.67-2.69ZM730.72,444.85l-.12.08c-.42.07-11.23.16-15.09.22-1.97.42-7.58,1.77-8.98,2.09-.38-1.45,2.24-3.72,3.67-4.11,4.65-1.57,16.17-.6,19.49-.87,1.95.58,3.11.7,1.03,2.59ZM826.36,340.75c2.48-2.77,7.63-8.27,9.63-10.48.64-.76.64-.62,1.49,0,.86.78-.03,2.01-.33,2.86-2.15,2.6-6.49,7.07-8.53,9.37l-.04.03c-.07-.06-2.43,1.13-2.6.87-.4-.26.04-2.23.38-2.64ZM827.79,295.53c1.69-1.04,4.1-3.76,5.76-3.89l.24.07c1.93,1.13,1.43,2.88-.42,4.01-2,1.5-4.06,3.23-5.97,4.52-1.09.76-2.49-.18-2.49-1.52.11-1.53,1.69-2.15,2.88-3.19ZM794.43,365.72c-.07.06-1.38-1.53-1.5-1.68-.15-.22.24-.26.72-.65,3.69-2.49,16.01-10.91,17.84-12.1.48.39,1.69,2.05,1.87,2.22l.03.07c-4.41,2.86-14.39,9.28-18.96,12.14ZM813.75,308.31c.5-.47,4.54-4.23,5.7-5.31.76-.82,2.8-1.61,3.53-1.04v.16c-.71,3.41-5.83,7.81-9.23,6.19Z" fill="#f7ede2"></path><path d="M612.9,429.89c-5.61,13.98-8.12,29.33-7.61,44.36.42,6.16,1.64,13.83,2.18,19.87v.2c-.03.61.01,2.01-.84,2.42-.85.4-1.77.3-1.79-.29-.37-3.05-1.6-13.24-2.11-17.9-1.67-16.12,1.42-32.26,6.38-47.56.61-2.01,1.92-3.71,3.97-4.47,2.05-.7-.03,2.53-.18,3.37Z" fill="#282726"></path><path d="M704.67,232.61c-2.43-.88-3.86-4.88-4.17-7.73-.4-3.35,1.37-8.72,5.79-9.53,2.96-.11,4.69,7.68,5.04,10.08l.02.27c.38,3.49-2.68,8.33-6.68,6.91Z" fill="#282726"></path><path d="M699.12,360.93c-5.37,10.57-6.81,21.86-1.34,33.04l.11.33c.1.56.71,2.64-.31,2.58-.69-.18-1.84-.5-2.21-1.18-5.71-11.72-5-25.52,1.89-36.81.35-.49,1.03-.64,1.58-.5.89.11.41,1.46.28,2.54Z" fill="#282726"></path><path d="M652.15,494.36l-.05.07c-1,.47-2.94-.89-3.17-2.07-2.63-8.08-10.26-35.43-1.55-34.11.32.11.48.31.48.6-.53,2.08-1.91,4.57-1.88,6.77.89,6.77,5.41,24.12,6.17,28.74Z" fill="#282726"></path><path d="M730.72,444.85l-.12.08c-.42.07-11.23.16-15.09.22-1.97.42-7.58,1.77-8.98,2.09-.38-1.45,2.24-3.72,3.67-4.11,4.65-1.57,16.17-.6,19.49-.87,1.95.58,3.11.7,1.03,2.59Z" fill="#282726"></path><path d="M813.39,353.58c-4.41,2.86-14.39,9.28-18.96,12.14-.07.06-1.38-1.53-1.5-1.68-.15-.22.24-.26.72-.65,3.69-2.49,16.01-10.91,17.84-12.1.48.39,1.69,2.05,1.87,2.22l.03.07Z" fill="#282726"></path><path d="M712.08,337.93c-.97,1.82-1.89,3.55-3.12,5.86-2.21,4.1-4.13,7.83-5.63,10.53-.07.05-.33-.11-.93-.42-2.35-1.25-1.99-.48-.4-3.64,1.98-3.67,5.87-11.08,7.64-14.3l.08.03c.13.06,1.9.99,2.4,1.26.4.22.12.24-.04.68Z" fill="#282726"></path><path d="M677.18,527.07h-.1c-3.79-.44-7.06-3.66-9.83-6.35-3.05-3.41-7.59-8.15-4.16-8.62,4.17,4.13,10.31,10.92,14.09,14.97Z" fill="#282726"></path><path d="M619.89,525.99c-.62-.07-1.18-1.36-1.71-1.84-3.87-4.7-8.5-9.28-7.88-16.05.21.15,2.44,3.54,4.74,6.84,1.34,1.95,4.4,6.41,5.15,7.5l.07.12c.53.66.61,3.01-.37,3.43Z" fill="#282726"></path><path d="M756.89,582.76l-.09.05c-3.71,1.64-8.45,2.12-12.15.41-2.62-1.2-3.37-2.87-1.67-2.69.84.02,1.97.08,3,.09.42-.01.87-.05,1.13-.2.57-.39,1.2-1.9,1.55-2.35.17-.3.15-.12.48.03,1.52.9,7.15,4.3,7.75,4.66Z" fill="#282726"></path><path d="M837.15,333.12c-2.15,2.6-6.49,7.07-8.53,9.37l-.04.03c-.07-.06-2.43,1.13-2.6.87-.4-.26.04-2.23.38-2.64,2.48-2.77,7.63-8.27,9.63-10.48.64-.76.64-.62,1.49,0,.86.78-.03,2.01-.33,2.86Z" fill="#282726"></path><path d="M780.85,576.83c-1.87,7.01-7.54,6.55-7.32-1.49-.22-2.34,1.83-5.84,2.94-2.67.45,1.03-.11,3.58.39,4.3l.12.05c1.18-.13,4.6-4.77,3.87-.19Z" fill="#282726"></path><path d="M653.38,591.49c-1.48-.06-2.79-.97-3.9-1.87l-.27-.24c-1.32-1.09-2.52-3.53-.45-4.07,1.55-.46,2.46-1.98,3.04-3.52.27-.57.73-1.55,1.33-.95,1.14,1.68,3.34,10.33.25,10.65Z" fill="#282726"></path><path d="M725.01,304.23c-.73,3.43-2.19,10.32-2.97,13.98-.09.24.07.29-.29.29-.52,0-1.81.03-2.53.02-.1,0,.02-.24.09-.68.57-2.84,2.76-13.69,2.89-14.32.57.03,2.62.69,2.77.69l.04.02Z" fill="#282726"></path><path d="M807.17,515.24c-2.42,3.09-7.66,8.57-10.17,11.51l-.08-.03c-3.74-3.06,6.57-12.22,10.25-11.48Z" fill="#282726"></path><path d="M833.37,295.72c-2,1.5-4.06,3.23-5.97,4.52-1.09.76-2.49-.18-2.49-1.52.11-1.53,1.69-2.15,2.88-3.19,1.69-1.04,4.1-3.76,5.76-3.89l.24.07c1.93,1.13,1.43,2.88-.42,4.01Z" fill="#282726"></path><path d="M796.57,535.87c-.21.87-2.91,6.4-3.38,7.55l-.04.03c-.42.14-2.27.8-2.59.9-.23.09-.36.08-.48-.15-.56-2.97,2.7-5.75,4.15-8.18.49-.55.35-.85.81-.66.44.15,1.46.45,1.53.51Z" fill="#282726"></path><path d="M822.99,302.12c-.72,3.41-5.84,7.81-9.24,6.19.5-.47,4.54-4.23,5.7-5.31.76-.82,2.8-1.61,3.53-1.04v.16Z" fill="#282726"></path><path d="M670.32,598.67c-1.78,3.45-7.1,3.3-8.74-.84l8.74.84Z" fill="#282726"></path><path d="M695.26,536.9c-1.99.16-3.39-.04-3.98-.84-.77-1.06-.94-3.6.08-5.28l3.9,6.12Z" fill="#282726"></path><polygon points="683.07 595.08 682.45 597.46 679.46 596.68 680.09 594.29 683.07 595.08" fill="#282726"></polygon><path d="M616.97,282.29l-.06.05c-7.18-2.09-22.59-35.27-21.06-42.73.27-.22.79.24,1.47,1.3,1.39,2.18,2.77,5.43,3.83,8.07,3.1,8.09,7.72,16.42,12.26,24.42,1.19,2.5,4.07,6.64,3.56,8.89Z" fill="#282726"></path><path d="M630.38,333.81c-2.32,3.15-4.16-11.13-4.35-13.09-.87-5.99-1.96-12.35-2.97-18.3-.86-4.09-.77-9.26,1.5-5.55,1.86,3.66,2.46,8.82,3.25,12.74l.07.37c.9,5.5,1.59,11.69,2.33,17.21.22,2.24.77,4.54.17,6.62Z" fill="#282726"></path><path d="M596.43,336.06c-2.49-2.01-4.16-5.84-3.33-9.04.18-.6.46-.95.79-.97l.18.02c2.05,1.37,3.41,5.92,4.7,8.24,1.05,2.18.52,4.07-2.34,1.75Z" fill="#282726"></path><path d="M634.76,357.39l-.17.09c-2.63-.7-3.19-5.17-2.02-7.4.62-1.33,1.45-1.57,1.86-.44.45,2.01,1.22,5.97.33,7.75Z" fill="#282726"></path><path d="M584.72,292.76c-1.9.81-4.68-4.25-3.59-5.59.44-.55,1.15-.95,1.87-.82l.3.08c1.38.64,4.28,5.76,1.42,6.33Z" fill="#282726"></path><path d="M581.95,260.38c-1.24-.53-2.64-1.34-3.16-1.97-.84-1.01.48-4.04,2.08-3.68l1.08,5.65Z" fill="#282726"></path><path d="M765.46,261.08l-.07-.03c-2.52-2.73-4.09-8.23-5.54-12.04-2.73-8.3-5.78-16.55-9.65-24.18-1.43-2.97-3.17-6.54-4.15-9.43-.51-1.54-.54-2.36-.08-2.34,2.77,1.49,5.08,5.95,6.9,8.87,4.58,8.35,7.94,17.87,10.85,27.28.92,3.2,1.9,7.04,2.18,10.1.09,1.28-.06,1.9-.44,1.77Z" fill="#282726"></path><path d="M770.57,285.04c-1.06,1.85-2.68,0-2.83-1.49.08-1.87-3.67-14.35.46-12.34l.19.17c1.29,1.76,1.32,6.68,1.92,9.1.21,1.91.77,3.06.26,4.56Z" fill="#282726"></path><path d="M724.3,358.97l-.12-.03c-.91-2.27.46-6.88.53-9.61.23-3.39,1.5-5.88,2.69-.9.61,3.38-.31,8.6-3.1,10.54Z" fill="#282726"></path><path d="M750.94,289.16c-3.38-.59-3.23-5.63-.17-6.44.73.83.86,4.96.17,6.44Z" fill="#282726"></path><path d="M728.91,342.72c0,.83-.66,1.49-1.49,1.49s-1.48-.66-1.48-1.49.66-1.48,1.48-1.48,1.49.66,1.49,1.48Z" fill="#282726"></path><path d="M846.62,643.23c-.51.37-2.22.85-2.89.77-2.46-1.43-8.57-6.37-9.39-6.85-.81-.87-2.04-2.1-.76-3.07.8-.24,2.16.71,2.96,1.26,2.14,1.58,6.91,5.11,8.75,6.47l.05.04c.07.05.87.66,1.21.93.27.2.28.27.07.45Z" fill="#282726"></path><path d="M819.45,622.26c-3.53,2.08-7.9.06-8.64-4.55,3.07,1.06,5.39,2.22,8.64,4.55Z" fill="#282726"></path><path d="M677.05,673.4l-.07.09c-1.53,1.06-6.02,5.09-7.65,5.9-.64.05-2.12-.3-2-.68.07-.33.5-1.13.78-1.54,1.7-1.62,4.78-3.96,6.64-5.56.59-.47,2.57-1.15,2.92-.87.37.36-.29,2.36-.62,2.66Z" fill="#282726"></path><path d="M682.75,667.87c-1.38-2.21.6-4.16,2.03-5.87l1.17-1.4c.24-.29.95-.37,1.33-.44,1.73-.32.79,4.55-4.53,7.71Z" fill="#282726"></path><path d="M665.21,248.76c-1.31,1.79-4.25,2.84-4,0,1.02-2.92,4.26-5.27,6.14-7.73,1.18-1.36,2.19-2.37,3.18-2.38h.24c3.8,1.76-4.24,8.07-5.56,10.1Z" fill="#282726"></path><path d="M652.69,259.18c-1,.46-2.66,1.36-3.34,1.3-.82-.07-1.92-2.3-.98-2.93.98-.51,2.88-1.61,3.85-1.59l.21.1c.67.78,1.58,2.62.26,3.12Z" fill="#282726"></path><circle cx="693.77" cy="197.11" r="1.48" fill="#282726"></circle><circle cx="696.27" cy="189.26" r="1.49" fill="#282726"></circle><circle cx="700.82" cy="194.64" r="1.49" fill="#282726"></circle><circle cx="714.34" cy="190.75" r="1.49" fill="#282726"></circle><circle cx="717.33" cy="197.11" r="1.49" fill="#282726"></circle><circle cx="730.6" cy="200.09" r="1.49" fill="#282726"></circle><circle cx="731.71" cy="193.73" r="1.49" fill="#282726"></circle><circle cx="678.72" cy="196.88" r="1.41" fill="#282726"></circle><circle cx="675.45" cy="189.99" r="1.44" fill="#282726"></circle><path d="M697.56,262.16c-1.85,3.26-4.09,5.95-6.79,8.27-12.61,5.97-27.15,9.65-37.77,11.76,2.27-2.93,4.92-5.67,7.39-8.5.59-.53,1.27-.87,2.05-1.03,4.95-.59,10.21-1.85,14.88-3.59,5.39-1.99,17.32-6.54,20.33-7.64.28-.08.23.16-.09.73Z" fill="#d89364"></path></svg>